<mxfile host="app.diagrams.net" agent="Mozilla/5.0 (Windows NT 10.0; Win64; x64) AppleWebKit/537.36 (KHTML, like Gecko) Chrome/131.0.0.0 Safari/537.36" version="25.0.3" pages="2">
  <diagram name="Page-1" id="imFHXEyTwjmKSMdX5b27">
    <mxGraphModel dx="473" dy="2759" grid="1" gridSize="10" guides="1" tooltips="1" connect="1" arrows="1" fold="1" page="1" pageScale="1" pageWidth="1920" pageHeight="1200" math="0" shadow="0">
      <root>
        <mxCell id="0" />
        <mxCell id="1" parent="0" />
        <mxCell id="rcMi0wilFv6k0mJdEsaz-121" style="edgeStyle=none;rounded=0;orthogonalLoop=1;jettySize=auto;html=1;exitX=0.75;exitY=1;exitDx=0;exitDy=0;entryX=1;entryY=0;entryDx=0;entryDy=0;fillColor=#bac8d3;strokeColor=#23445d;strokeWidth=2;" edge="1" parent="1" source="rcMi0wilFv6k0mJdEsaz-87" target="rcMi0wilFv6k0mJdEsaz-1">
          <mxGeometry relative="1" as="geometry" />
        </mxCell>
        <mxCell id="6HQXh_pFPckdDbp-CF7b-124" value="" style="edgeStyle=none;rounded=0;orthogonalLoop=1;jettySize=auto;html=1;exitX=0;exitY=0.5;exitDx=0;exitDy=0;strokeWidth=2;fillColor=#b0e3e6;strokeColor=#0e8088;entryX=1;entryY=1;entryDx=0;entryDy=0;" parent="1" source="6HQXh_pFPckdDbp-CF7b-81" target="6HQXh_pFPckdDbp-CF7b-63" edge="1">
          <mxGeometry relative="1" as="geometry">
            <mxPoint x="2269" y="3586" as="sourcePoint" />
            <mxPoint x="1570" y="3050" as="targetPoint" />
          </mxGeometry>
        </mxCell>
        <mxCell id="rcMi0wilFv6k0mJdEsaz-120" style="edgeStyle=none;rounded=0;orthogonalLoop=1;jettySize=auto;html=1;exitX=0;exitY=0.5;exitDx=0;exitDy=0;entryX=1;entryY=1;entryDx=0;entryDy=0;fillColor=#bac8d3;strokeColor=#23445d;strokeWidth=2;" edge="1" parent="1" source="rcMi0wilFv6k0mJdEsaz-103" target="rcMi0wilFv6k0mJdEsaz-1">
          <mxGeometry relative="1" as="geometry" />
        </mxCell>
        <mxCell id="rcMi0wilFv6k0mJdEsaz-117" style="edgeStyle=none;rounded=0;orthogonalLoop=1;jettySize=auto;html=1;exitX=1;exitY=0.5;exitDx=0;exitDy=0;entryX=0.25;entryY=1;entryDx=0;entryDy=0;fillColor=#bac8d3;strokeColor=#23445d;" edge="1" parent="1" source="rcMi0wilFv6k0mJdEsaz-1" target="rcMi0wilFv6k0mJdEsaz-105">
          <mxGeometry relative="1" as="geometry" />
        </mxCell>
        <mxCell id="rcMi0wilFv6k0mJdEsaz-118" style="edgeStyle=none;rounded=0;orthogonalLoop=1;jettySize=auto;html=1;exitX=1;exitY=0.5;exitDx=0;exitDy=0;entryX=0.75;entryY=1;entryDx=0;entryDy=0;fillColor=#bac8d3;strokeColor=#23445d;" edge="1" parent="1" source="rcMi0wilFv6k0mJdEsaz-1" target="rcMi0wilFv6k0mJdEsaz-91">
          <mxGeometry relative="1" as="geometry" />
        </mxCell>
        <mxCell id="rcMi0wilFv6k0mJdEsaz-119" style="edgeStyle=none;rounded=0;orthogonalLoop=1;jettySize=auto;html=1;exitX=1;exitY=0.5;exitDx=0;exitDy=0;entryX=0.75;entryY=1;entryDx=0;entryDy=0;fillColor=#bac8d3;strokeColor=#23445d;" edge="1" parent="1" source="rcMi0wilFv6k0mJdEsaz-1" target="rcMi0wilFv6k0mJdEsaz-72">
          <mxGeometry relative="1" as="geometry" />
        </mxCell>
        <mxCell id="rcMi0wilFv6k0mJdEsaz-70" style="edgeStyle=none;rounded=0;orthogonalLoop=1;jettySize=auto;html=1;exitX=0.75;exitY=1;exitDx=0;exitDy=0;strokeWidth=2;fillColor=#d0cee2;strokeColor=#56517e;" edge="1" parent="1" source="rcMi0wilFv6k0mJdEsaz-10" target="rcMi0wilFv6k0mJdEsaz-4">
          <mxGeometry relative="1" as="geometry" />
        </mxCell>
        <mxCell id="rcMi0wilFv6k0mJdEsaz-69" style="edgeStyle=none;rounded=0;orthogonalLoop=1;jettySize=auto;html=1;exitX=0;exitY=0.5;exitDx=0;exitDy=0;entryX=1;entryY=1;entryDx=0;entryDy=0;strokeWidth=2;fillColor=#d0cee2;strokeColor=#56517e;" edge="1" parent="1" source="rcMi0wilFv6k0mJdEsaz-53" target="rcMi0wilFv6k0mJdEsaz-4">
          <mxGeometry relative="1" as="geometry" />
        </mxCell>
        <mxCell id="rcMi0wilFv6k0mJdEsaz-68" style="edgeStyle=none;rounded=0;orthogonalLoop=1;jettySize=auto;html=1;exitX=1;exitY=0.5;exitDx=0;exitDy=0;entryX=0.25;entryY=1;entryDx=0;entryDy=0;fillColor=#d0cee2;strokeColor=#56517e;" edge="1" parent="1" source="rcMi0wilFv6k0mJdEsaz-4" target="rcMi0wilFv6k0mJdEsaz-56">
          <mxGeometry relative="1" as="geometry" />
        </mxCell>
        <mxCell id="rcMi0wilFv6k0mJdEsaz-66" style="rounded=0;orthogonalLoop=1;jettySize=auto;html=1;exitX=1;exitY=0.5;exitDx=0;exitDy=0;entryX=0.75;entryY=1;entryDx=0;entryDy=0;fillColor=#d0cee2;strokeColor=#56517e;" edge="1" parent="1" source="rcMi0wilFv6k0mJdEsaz-4" target="rcMi0wilFv6k0mJdEsaz-15">
          <mxGeometry relative="1" as="geometry" />
        </mxCell>
        <mxCell id="rcMi0wilFv6k0mJdEsaz-65" style="rounded=0;orthogonalLoop=1;jettySize=auto;html=1;exitX=1;exitY=0.5;exitDx=0;exitDy=0;entryX=0.75;entryY=1;entryDx=0;entryDy=0;fillColor=#d0cee2;strokeColor=#56517e;" edge="1" parent="1" source="rcMi0wilFv6k0mJdEsaz-4" target="rcMi0wilFv6k0mJdEsaz-36">
          <mxGeometry relative="1" as="geometry" />
        </mxCell>
        <mxCell id="6HQXh_pFPckdDbp-CF7b-97" style="edgeStyle=none;rounded=0;orthogonalLoop=1;jettySize=auto;html=1;exitX=0;exitY=0.5;exitDx=0;exitDy=0;entryX=1;entryY=1;entryDx=0;entryDy=0;fillColor=#fad7ac;strokeColor=#b46504;strokeWidth=2;" parent="1" source="6HQXh_pFPckdDbp-CF7b-68" target="6HQXh_pFPckdDbp-CF7b-14" edge="1">
          <mxGeometry relative="1" as="geometry" />
        </mxCell>
        <mxCell id="hVdwgTMXwn0eozp2v96i-5" style="edgeStyle=orthogonalEdgeStyle;rounded=0;orthogonalLoop=1;jettySize=auto;html=1;exitX=1;exitY=0.5;exitDx=0;exitDy=0;entryX=0.5;entryY=1;entryDx=0;entryDy=0;" parent="1" source="hVdwgTMXwn0eozp2v96i-1" target="hVdwgTMXwn0eozp2v96i-3" edge="1">
          <mxGeometry relative="1" as="geometry" />
        </mxCell>
        <mxCell id="hVdwgTMXwn0eozp2v96i-1" value="" style="ellipse;whiteSpace=wrap;html=1;aspect=fixed;" parent="1" vertex="1">
          <mxGeometry x="330" y="753" width="60" height="60" as="geometry" />
        </mxCell>
        <mxCell id="hVdwgTMXwn0eozp2v96i-13" style="rounded=0;orthogonalLoop=1;jettySize=auto;html=1;exitX=0.5;exitY=0;exitDx=0;exitDy=0;entryX=0;entryY=0.5;entryDx=0;entryDy=0;" parent="1" source="hVdwgTMXwn0eozp2v96i-3" target="hVdwgTMXwn0eozp2v96i-11" edge="1">
          <mxGeometry relative="1" as="geometry" />
        </mxCell>
        <mxCell id="hVdwgTMXwn0eozp2v96i-3" value="" style="rounded=0;whiteSpace=wrap;html=1;rotation=90;" parent="1" vertex="1">
          <mxGeometry x="430" y="768" width="95" height="30" as="geometry" />
        </mxCell>
        <mxCell id="hVdwgTMXwn0eozp2v96i-7" value="" style="endArrow=classic;html=1;rounded=0;" parent="1" source="hVdwgTMXwn0eozp2v96i-3" edge="1">
          <mxGeometry width="50" height="50" relative="1" as="geometry">
            <mxPoint x="478" y="733" as="sourcePoint" />
            <mxPoint x="360" y="753" as="targetPoint" />
            <Array as="points">
              <mxPoint x="478" y="713" />
              <mxPoint x="360" y="713" />
            </Array>
          </mxGeometry>
        </mxCell>
        <mxCell id="hVdwgTMXwn0eozp2v96i-9" value="Elektromobily" style="text;html=1;align=center;verticalAlign=middle;whiteSpace=wrap;rounded=0;" parent="1" vertex="1">
          <mxGeometry x="315" y="813" width="90" height="30" as="geometry" />
        </mxCell>
        <mxCell id="hVdwgTMXwn0eozp2v96i-19" style="rounded=0;orthogonalLoop=1;jettySize=auto;html=1;exitX=1;exitY=0.5;exitDx=0;exitDy=0;entryX=0.5;entryY=1;entryDx=0;entryDy=0;" parent="1" source="hVdwgTMXwn0eozp2v96i-11" target="hVdwgTMXwn0eozp2v96i-16" edge="1">
          <mxGeometry relative="1" as="geometry" />
        </mxCell>
        <mxCell id="hVdwgTMXwn0eozp2v96i-20" style="rounded=0;orthogonalLoop=1;jettySize=auto;html=1;exitX=1;exitY=0.5;exitDx=0;exitDy=0;entryX=0.5;entryY=1;entryDx=0;entryDy=0;" parent="1" source="hVdwgTMXwn0eozp2v96i-11" target="hVdwgTMXwn0eozp2v96i-17" edge="1">
          <mxGeometry relative="1" as="geometry" />
        </mxCell>
        <mxCell id="hVdwgTMXwn0eozp2v96i-21" style="rounded=0;orthogonalLoop=1;jettySize=auto;html=1;exitX=1;exitY=0.5;exitDx=0;exitDy=0;entryX=0.5;entryY=1;entryDx=0;entryDy=0;" parent="1" source="hVdwgTMXwn0eozp2v96i-11" target="hVdwgTMXwn0eozp2v96i-18" edge="1">
          <mxGeometry relative="1" as="geometry" />
        </mxCell>
        <mxCell id="hVdwgTMXwn0eozp2v96i-11" value="" style="ellipse;whiteSpace=wrap;html=1;aspect=fixed;" parent="1" vertex="1">
          <mxGeometry x="570" y="753" width="60" height="60" as="geometry" />
        </mxCell>
        <mxCell id="hVdwgTMXwn0eozp2v96i-15" value="Fronta elektromobilů v Brně" style="text;html=1;align=center;verticalAlign=middle;whiteSpace=wrap;rounded=0;" parent="1" vertex="1">
          <mxGeometry x="560" y="815.5" width="80" height="57" as="geometry" />
        </mxCell>
        <mxCell id="hVdwgTMXwn0eozp2v96i-31" style="edgeStyle=orthogonalEdgeStyle;rounded=0;orthogonalLoop=1;jettySize=auto;html=1;exitX=0.5;exitY=0;exitDx=0;exitDy=0;entryX=0;entryY=0.5;entryDx=0;entryDy=0;" parent="1" source="hVdwgTMXwn0eozp2v96i-16" target="hVdwgTMXwn0eozp2v96i-101" edge="1">
          <mxGeometry relative="1" as="geometry">
            <mxPoint x="1290" y="-1462" as="targetPoint" />
          </mxGeometry>
        </mxCell>
        <mxCell id="hVdwgTMXwn0eozp2v96i-16" value="" style="rounded=0;whiteSpace=wrap;html=1;rotation=90;" parent="1" vertex="1">
          <mxGeometry x="1130" y="-1477" width="95" height="30" as="geometry" />
        </mxCell>
        <mxCell id="hVdwgTMXwn0eozp2v96i-29" style="edgeStyle=orthogonalEdgeStyle;rounded=0;orthogonalLoop=1;jettySize=auto;html=1;exitX=0.5;exitY=0;exitDx=0;exitDy=0;entryX=0;entryY=0.5;entryDx=0;entryDy=0;" parent="1" source="hVdwgTMXwn0eozp2v96i-17" target="hVdwgTMXwn0eozp2v96i-28" edge="1">
          <mxGeometry relative="1" as="geometry" />
        </mxCell>
        <mxCell id="hVdwgTMXwn0eozp2v96i-17" value="" style="rounded=0;whiteSpace=wrap;html=1;rotation=90;" parent="1" vertex="1">
          <mxGeometry x="730" y="768" width="95" height="30" as="geometry" />
        </mxCell>
        <mxCell id="hVdwgTMXwn0eozp2v96i-33" style="edgeStyle=orthogonalEdgeStyle;rounded=0;orthogonalLoop=1;jettySize=auto;html=1;exitX=0.5;exitY=0;exitDx=0;exitDy=0;entryX=0;entryY=0.5;entryDx=0;entryDy=0;" parent="1" source="hVdwgTMXwn0eozp2v96i-18" target="hVdwgTMXwn0eozp2v96i-164" edge="1">
          <mxGeometry relative="1" as="geometry">
            <mxPoint x="1290" y="3178.0000000000005" as="targetPoint" />
          </mxGeometry>
        </mxCell>
        <mxCell id="hVdwgTMXwn0eozp2v96i-18" value="" style="rounded=0;whiteSpace=wrap;html=1;rotation=90;" parent="1" vertex="1">
          <mxGeometry x="1130" y="3163" width="95" height="30" as="geometry" />
        </mxCell>
        <mxCell id="hVdwgTMXwn0eozp2v96i-22" value="10%" style="text;html=1;align=center;verticalAlign=middle;whiteSpace=wrap;rounded=0;" parent="1" vertex="1">
          <mxGeometry x="1157.5" y="-1417" width="40" height="30" as="geometry" />
        </mxCell>
        <mxCell id="hVdwgTMXwn0eozp2v96i-23" value="80%" style="text;html=1;align=center;verticalAlign=middle;whiteSpace=wrap;rounded=0;" parent="1" vertex="1">
          <mxGeometry x="758" y="829" width="40" height="30" as="geometry" />
        </mxCell>
        <mxCell id="hVdwgTMXwn0eozp2v96i-24" value="10%" style="text;html=1;align=center;verticalAlign=middle;whiteSpace=wrap;rounded=0;" parent="1" vertex="1">
          <mxGeometry x="1157.5" y="3223" width="40" height="30" as="geometry" />
        </mxCell>
        <mxCell id="hVdwgTMXwn0eozp2v96i-26" value="Elektromobil má aktuální kapacitu baterie 20-80 %." style="text;html=1;align=center;verticalAlign=middle;whiteSpace=wrap;rounded=0;" parent="1" vertex="1">
          <mxGeometry x="730" y="650" width="93.5" height="103" as="geometry" />
        </mxCell>
        <mxCell id="Ne4zD6o56oPT8uHqeSny-9" style="edgeStyle=none;rounded=0;orthogonalLoop=1;jettySize=auto;html=1;exitX=1;exitY=0.5;exitDx=0;exitDy=0;entryX=0.5;entryY=1;entryDx=0;entryDy=0;" parent="1" source="hVdwgTMXwn0eozp2v96i-28" target="Ne4zD6o56oPT8uHqeSny-3" edge="1">
          <mxGeometry relative="1" as="geometry" />
        </mxCell>
        <mxCell id="Ne4zD6o56oPT8uHqeSny-10" style="edgeStyle=none;rounded=0;orthogonalLoop=1;jettySize=auto;html=1;exitX=1;exitY=0.5;exitDx=0;exitDy=0;entryX=0.5;entryY=1;entryDx=0;entryDy=0;" parent="1" source="hVdwgTMXwn0eozp2v96i-28" target="Ne4zD6o56oPT8uHqeSny-4" edge="1">
          <mxGeometry relative="1" as="geometry" />
        </mxCell>
        <mxCell id="Ne4zD6o56oPT8uHqeSny-11" style="edgeStyle=none;rounded=0;orthogonalLoop=1;jettySize=auto;html=1;exitX=1;exitY=0.5;exitDx=0;exitDy=0;entryX=0.5;entryY=1;entryDx=0;entryDy=0;" parent="1" source="hVdwgTMXwn0eozp2v96i-28" target="Ne4zD6o56oPT8uHqeSny-1" edge="1">
          <mxGeometry relative="1" as="geometry" />
        </mxCell>
        <mxCell id="Ne4zD6o56oPT8uHqeSny-12" style="edgeStyle=none;rounded=0;orthogonalLoop=1;jettySize=auto;html=1;exitX=1;exitY=0.5;exitDx=0;exitDy=0;entryX=0.5;entryY=1;entryDx=0;entryDy=0;" parent="1" source="hVdwgTMXwn0eozp2v96i-28" target="Ne4zD6o56oPT8uHqeSny-2" edge="1">
          <mxGeometry relative="1" as="geometry" />
        </mxCell>
        <mxCell id="6HQXh_pFPckdDbp-CF7b-43" style="edgeStyle=none;rounded=0;orthogonalLoop=1;jettySize=auto;html=1;exitX=1;exitY=0.5;exitDx=0;exitDy=0;entryX=0.5;entryY=1;entryDx=0;entryDy=0;" parent="1" source="hVdwgTMXwn0eozp2v96i-28" target="6HQXh_pFPckdDbp-CF7b-38" edge="1">
          <mxGeometry relative="1" as="geometry" />
        </mxCell>
        <mxCell id="6HQXh_pFPckdDbp-CF7b-55" style="edgeStyle=none;rounded=0;orthogonalLoop=1;jettySize=auto;html=1;exitX=1;exitY=0.5;exitDx=0;exitDy=0;entryX=0.5;entryY=1;entryDx=0;entryDy=0;" parent="1" source="hVdwgTMXwn0eozp2v96i-28" target="6HQXh_pFPckdDbp-CF7b-51" edge="1">
          <mxGeometry relative="1" as="geometry" />
        </mxCell>
        <mxCell id="rcMi0wilFv6k0mJdEsaz-20" style="rounded=0;orthogonalLoop=1;jettySize=auto;html=1;exitX=1;exitY=0.5;exitDx=0;exitDy=0;entryX=0.5;entryY=1;entryDx=0;entryDy=0;" edge="1" parent="1" source="hVdwgTMXwn0eozp2v96i-28" target="rcMi0wilFv6k0mJdEsaz-14">
          <mxGeometry relative="1" as="geometry" />
        </mxCell>
        <mxCell id="rcMi0wilFv6k0mJdEsaz-97" style="edgeStyle=none;rounded=0;orthogonalLoop=1;jettySize=auto;html=1;exitX=1;exitY=0.5;exitDx=0;exitDy=0;entryX=0.5;entryY=1;entryDx=0;entryDy=0;" edge="1" parent="1" source="hVdwgTMXwn0eozp2v96i-28" target="rcMi0wilFv6k0mJdEsaz-90">
          <mxGeometry relative="1" as="geometry" />
        </mxCell>
        <mxCell id="hVdwgTMXwn0eozp2v96i-28" value="" style="ellipse;whiteSpace=wrap;html=1;aspect=fixed;" parent="1" vertex="1">
          <mxGeometry x="890" y="753" width="60" height="60" as="geometry" />
        </mxCell>
        <mxCell id="hVdwgTMXwn0eozp2v96i-67" style="edgeStyle=orthogonalEdgeStyle;rounded=0;orthogonalLoop=1;jettySize=auto;html=1;exitX=0.5;exitY=0;exitDx=0;exitDy=0;entryX=0;entryY=0.5;entryDx=0;entryDy=0;" parent="1" source="Ne4zD6o56oPT8uHqeSny-13" target="hVdwgTMXwn0eozp2v96i-51" edge="1">
          <mxGeometry relative="1" as="geometry">
            <mxPoint x="2022.5" y="782" as="sourcePoint" />
          </mxGeometry>
        </mxCell>
        <mxCell id="hVdwgTMXwn0eozp2v96i-69" style="edgeStyle=orthogonalEdgeStyle;rounded=0;orthogonalLoop=1;jettySize=auto;html=1;exitX=0.5;exitY=0;exitDx=0;exitDy=0;" parent="1" source="Ne4zD6o56oPT8uHqeSny-14" target="hVdwgTMXwn0eozp2v96i-52" edge="1">
          <mxGeometry relative="1" as="geometry">
            <mxPoint x="2022.5" y="1118" as="sourcePoint" />
          </mxGeometry>
        </mxCell>
        <mxCell id="hVdwgTMXwn0eozp2v96i-63" style="edgeStyle=orthogonalEdgeStyle;rounded=0;orthogonalLoop=1;jettySize=auto;html=1;exitX=0.5;exitY=0;exitDx=0;exitDy=0;" parent="1" source="Ne4zD6o56oPT8uHqeSny-15" target="hVdwgTMXwn0eozp2v96i-55" edge="1">
          <mxGeometry relative="1" as="geometry">
            <mxPoint x="2022.5" y="354" as="sourcePoint" />
          </mxGeometry>
        </mxCell>
        <mxCell id="hVdwgTMXwn0eozp2v96i-65" style="edgeStyle=orthogonalEdgeStyle;rounded=0;orthogonalLoop=1;jettySize=auto;html=1;exitX=0.5;exitY=0;exitDx=0;exitDy=0;" parent="1" source="Ne4zD6o56oPT8uHqeSny-16" target="hVdwgTMXwn0eozp2v96i-56" edge="1">
          <mxGeometry relative="1" as="geometry">
            <mxPoint x="2022.5" y="573" as="sourcePoint" />
          </mxGeometry>
        </mxCell>
        <mxCell id="hVdwgTMXwn0eozp2v96i-68" style="edgeStyle=orthogonalEdgeStyle;rounded=0;orthogonalLoop=1;jettySize=auto;html=1;exitX=1;exitY=0.5;exitDx=0;exitDy=0;" parent="1" source="hVdwgTMXwn0eozp2v96i-51" target="hVdwgTMXwn0eozp2v96i-53" edge="1">
          <mxGeometry relative="1" as="geometry" />
        </mxCell>
        <mxCell id="hVdwgTMXwn0eozp2v96i-70" style="edgeStyle=orthogonalEdgeStyle;rounded=0;orthogonalLoop=1;jettySize=auto;html=1;exitX=1;exitY=0.5;exitDx=0;exitDy=0;entryX=0.5;entryY=1;entryDx=0;entryDy=0;" parent="1" source="hVdwgTMXwn0eozp2v96i-52" target="hVdwgTMXwn0eozp2v96i-54" edge="1">
          <mxGeometry relative="1" as="geometry" />
        </mxCell>
        <mxCell id="hVdwgTMXwn0eozp2v96i-52" value="" style="ellipse;whiteSpace=wrap;html=1;aspect=fixed;" parent="1" vertex="1">
          <mxGeometry x="2110" y="1088" width="60" height="60" as="geometry" />
        </mxCell>
        <mxCell id="hVdwgTMXwn0eozp2v96i-224" style="rounded=0;orthogonalLoop=1;jettySize=auto;html=1;exitX=0.5;exitY=0;exitDx=0;exitDy=0;entryX=0;entryY=0.5;entryDx=0;entryDy=0;" parent="1" source="hVdwgTMXwn0eozp2v96i-53" target="hVdwgTMXwn0eozp2v96i-219" edge="1">
          <mxGeometry relative="1" as="geometry">
            <mxPoint x="2640" y="1163" as="targetPoint" />
          </mxGeometry>
        </mxCell>
        <mxCell id="CMwm_mQ0izCvLeI7IXAa-15" style="edgeStyle=none;rounded=0;orthogonalLoop=1;jettySize=auto;html=1;exitX=0.5;exitY=0;exitDx=0;exitDy=0;entryX=0.5;entryY=0;entryDx=0;entryDy=0;fillColor=#dae8fc;strokeColor=#6c8ebf;strokeWidth=2;" parent="1" source="hVdwgTMXwn0eozp2v96i-53" target="hVdwgTMXwn0eozp2v96i-212" edge="1">
          <mxGeometry relative="1" as="geometry" />
        </mxCell>
        <mxCell id="hVdwgTMXwn0eozp2v96i-53" value="" style="rounded=0;whiteSpace=wrap;html=1;rotation=90;" parent="1" vertex="1">
          <mxGeometry x="2211" y="767" width="95" height="30" as="geometry" />
        </mxCell>
        <mxCell id="hVdwgTMXwn0eozp2v96i-225" style="rounded=0;orthogonalLoop=1;jettySize=auto;html=1;exitX=0.5;exitY=0;exitDx=0;exitDy=0;entryX=0;entryY=0.5;entryDx=0;entryDy=0;" parent="1" source="hVdwgTMXwn0eozp2v96i-54" target="hVdwgTMXwn0eozp2v96i-219" edge="1">
          <mxGeometry relative="1" as="geometry" />
        </mxCell>
        <mxCell id="CMwm_mQ0izCvLeI7IXAa-16" style="edgeStyle=none;rounded=0;orthogonalLoop=1;jettySize=auto;html=1;exitX=0.75;exitY=1;exitDx=0;exitDy=0;entryX=1;entryY=0;entryDx=0;entryDy=0;fillColor=#d5e8d4;strokeColor=#82b366;strokeWidth=2;" parent="1" source="hVdwgTMXwn0eozp2v96i-54" target="hVdwgTMXwn0eozp2v96i-215" edge="1">
          <mxGeometry relative="1" as="geometry" />
        </mxCell>
        <mxCell id="hVdwgTMXwn0eozp2v96i-54" value="" style="rounded=0;whiteSpace=wrap;html=1;rotation=90;" parent="1" vertex="1">
          <mxGeometry x="2211" y="1103" width="95" height="30" as="geometry" />
        </mxCell>
        <mxCell id="hVdwgTMXwn0eozp2v96i-64" style="edgeStyle=orthogonalEdgeStyle;rounded=0;orthogonalLoop=1;jettySize=auto;html=1;exitX=1;exitY=0.5;exitDx=0;exitDy=0;" parent="1" source="hVdwgTMXwn0eozp2v96i-55" target="hVdwgTMXwn0eozp2v96i-57" edge="1">
          <mxGeometry relative="1" as="geometry" />
        </mxCell>
        <mxCell id="hVdwgTMXwn0eozp2v96i-66" style="edgeStyle=orthogonalEdgeStyle;rounded=0;orthogonalLoop=1;jettySize=auto;html=1;exitX=1;exitY=0.5;exitDx=0;exitDy=0;" parent="1" source="hVdwgTMXwn0eozp2v96i-56" target="hVdwgTMXwn0eozp2v96i-58" edge="1">
          <mxGeometry relative="1" as="geometry" />
        </mxCell>
        <mxCell id="hVdwgTMXwn0eozp2v96i-222" style="rounded=0;orthogonalLoop=1;jettySize=auto;html=1;exitX=0.5;exitY=0;exitDx=0;exitDy=0;entryX=0;entryY=0.5;entryDx=0;entryDy=0;" parent="1" source="hVdwgTMXwn0eozp2v96i-57" target="hVdwgTMXwn0eozp2v96i-219" edge="1">
          <mxGeometry relative="1" as="geometry" />
        </mxCell>
        <mxCell id="CMwm_mQ0izCvLeI7IXAa-13" style="edgeStyle=none;rounded=0;orthogonalLoop=1;jettySize=auto;html=1;exitX=0.25;exitY=0;exitDx=0;exitDy=0;entryX=1;entryY=0;entryDx=0;entryDy=0;strokeWidth=2;fillColor=#f8cecc;strokeColor=#b85450;" parent="1" source="hVdwgTMXwn0eozp2v96i-57" target="hVdwgTMXwn0eozp2v96i-79" edge="1">
          <mxGeometry relative="1" as="geometry" />
        </mxCell>
        <mxCell id="hVdwgTMXwn0eozp2v96i-57" value="" style="rounded=0;whiteSpace=wrap;html=1;rotation=90;" parent="1" vertex="1">
          <mxGeometry x="2211" y="339" width="95" height="30" as="geometry" />
        </mxCell>
        <mxCell id="hVdwgTMXwn0eozp2v96i-223" style="rounded=0;orthogonalLoop=1;jettySize=auto;html=1;exitX=0.5;exitY=0;exitDx=0;exitDy=0;entryX=0;entryY=0.5;entryDx=0;entryDy=0;" parent="1" source="hVdwgTMXwn0eozp2v96i-58" target="hVdwgTMXwn0eozp2v96i-219" edge="1">
          <mxGeometry relative="1" as="geometry">
            <mxPoint x="2630" y="1163.0000000000005" as="targetPoint" />
          </mxGeometry>
        </mxCell>
        <mxCell id="CMwm_mQ0izCvLeI7IXAa-14" style="edgeStyle=none;rounded=0;orthogonalLoop=1;jettySize=auto;html=1;exitX=0.25;exitY=0;exitDx=0;exitDy=0;entryX=1;entryY=0;entryDx=0;entryDy=0;fillColor=#e1d5e7;strokeColor=#9673a6;strokeWidth=2;" parent="1" source="hVdwgTMXwn0eozp2v96i-58" target="hVdwgTMXwn0eozp2v96i-209" edge="1">
          <mxGeometry relative="1" as="geometry" />
        </mxCell>
        <mxCell id="hVdwgTMXwn0eozp2v96i-58" value="" style="rounded=0;whiteSpace=wrap;html=1;rotation=90;" parent="1" vertex="1">
          <mxGeometry x="2211" y="558" width="95" height="30" as="geometry" />
        </mxCell>
        <mxCell id="hVdwgTMXwn0eozp2v96i-72" value="nabíjení" style="text;html=1;align=center;verticalAlign=middle;whiteSpace=wrap;rounded=0;" parent="1" vertex="1">
          <mxGeometry x="2140" y="603" width="60" height="30" as="geometry" />
        </mxCell>
        <mxCell id="hVdwgTMXwn0eozp2v96i-73" value="nabíjení" style="text;html=1;align=center;verticalAlign=middle;whiteSpace=wrap;rounded=0;" parent="1" vertex="1">
          <mxGeometry x="2120" y="812" width="60" height="30" as="geometry" />
        </mxCell>
        <mxCell id="hVdwgTMXwn0eozp2v96i-74" value="nabíjení" style="text;html=1;align=center;verticalAlign=middle;whiteSpace=wrap;rounded=0;" parent="1" vertex="1">
          <mxGeometry x="2120" y="1148" width="60" height="30" as="geometry" />
        </mxCell>
        <mxCell id="CMwm_mQ0izCvLeI7IXAa-1" style="edgeStyle=none;rounded=0;orthogonalLoop=1;jettySize=auto;html=1;exitX=1;exitY=0.5;exitDx=0;exitDy=0;entryX=0.75;entryY=1;entryDx=0;entryDy=0;fillColor=#f8cecc;strokeColor=#b85450;" parent="1" source="hVdwgTMXwn0eozp2v96i-79" target="hVdwgTMXwn0eozp2v96i-119" edge="1">
          <mxGeometry relative="1" as="geometry">
            <mxPoint x="2005" y="-1735" as="targetPoint" />
          </mxGeometry>
        </mxCell>
        <mxCell id="CMwm_mQ0izCvLeI7IXAa-3" style="edgeStyle=none;rounded=0;orthogonalLoop=1;jettySize=auto;html=1;exitX=1;exitY=0.5;exitDx=0;exitDy=0;entryX=0.25;entryY=1;entryDx=0;entryDy=0;fillColor=#f8cecc;strokeColor=#b85450;" parent="1" source="hVdwgTMXwn0eozp2v96i-79" target="Ne4zD6o56oPT8uHqeSny-41" edge="1">
          <mxGeometry relative="1" as="geometry">
            <mxPoint x="2002.5" y="1465.25" as="targetPoint" />
          </mxGeometry>
        </mxCell>
        <mxCell id="Ne4zD6o56oPT8uHqeSny-35" style="edgeStyle=none;rounded=0;orthogonalLoop=1;jettySize=auto;html=1;exitX=1;exitY=0.5;exitDx=0;exitDy=0;entryX=0.25;entryY=1;entryDx=0;entryDy=0;fillColor=#f8cecc;strokeColor=#b85450;" parent="1" source="hVdwgTMXwn0eozp2v96i-79" target="Ne4zD6o56oPT8uHqeSny-15" edge="1">
          <mxGeometry relative="1" as="geometry" />
        </mxCell>
        <mxCell id="hVdwgTMXwn0eozp2v96i-79" value="" style="ellipse;whiteSpace=wrap;html=1;aspect=fixed;fillColor=#f8cecc;strokeColor=#b85450;" parent="1" vertex="1">
          <mxGeometry x="1153.5" y="-650" width="118" height="113" as="geometry" />
        </mxCell>
        <mxCell id="hVdwgTMXwn0eozp2v96i-87" value="&lt;font style=&quot;font-size: 35px;&quot;&gt;20&lt;/font&gt;" style="text;html=1;align=center;verticalAlign=middle;whiteSpace=wrap;rounded=0;fillColor=#f8cecc;strokeColor=#b85450;" parent="1" vertex="1">
          <mxGeometry x="1181.5" y="-605" width="60" height="25" as="geometry" />
        </mxCell>
        <mxCell id="hVdwgTMXwn0eozp2v96i-95" value="Sklad&amp;nbsp;&lt;div&gt;12 kW&lt;/div&gt;&lt;div&gt;nabíječek&lt;/div&gt;" style="text;html=1;align=center;verticalAlign=middle;whiteSpace=wrap;rounded=0;fillColor=#f8cecc;strokeColor=#b85450;" parent="1" vertex="1">
          <mxGeometry x="1176.5" y="-532" width="72" height="47" as="geometry" />
        </mxCell>
        <mxCell id="DUZmrAGYnQG1LHZdkdyr-12" style="edgeStyle=none;rounded=0;orthogonalLoop=1;jettySize=auto;html=1;exitX=1;exitY=0.5;exitDx=0;exitDy=0;entryX=0.5;entryY=1;entryDx=0;entryDy=0;" parent="1" source="hVdwgTMXwn0eozp2v96i-101" target="DUZmrAGYnQG1LHZdkdyr-5" edge="1">
          <mxGeometry relative="1" as="geometry" />
        </mxCell>
        <mxCell id="DUZmrAGYnQG1LHZdkdyr-13" style="edgeStyle=none;rounded=0;orthogonalLoop=1;jettySize=auto;html=1;exitX=1;exitY=0.5;exitDx=0;exitDy=0;entryX=0.5;entryY=1;entryDx=0;entryDy=0;" parent="1" source="hVdwgTMXwn0eozp2v96i-101" target="DUZmrAGYnQG1LHZdkdyr-6" edge="1">
          <mxGeometry relative="1" as="geometry" />
        </mxCell>
        <mxCell id="6HQXh_pFPckdDbp-CF7b-13" style="rounded=0;orthogonalLoop=1;jettySize=auto;html=1;exitX=1;exitY=0.5;exitDx=0;exitDy=0;entryX=0.5;entryY=1;entryDx=0;entryDy=0;" parent="1" source="hVdwgTMXwn0eozp2v96i-101" target="6HQXh_pFPckdDbp-CF7b-9" edge="1">
          <mxGeometry relative="1" as="geometry" />
        </mxCell>
        <mxCell id="6HQXh_pFPckdDbp-CF7b-30" style="edgeStyle=none;rounded=0;orthogonalLoop=1;jettySize=auto;html=1;exitX=1;exitY=0.5;exitDx=0;exitDy=0;entryX=0.5;entryY=1;entryDx=0;entryDy=0;" parent="1" source="hVdwgTMXwn0eozp2v96i-101" target="6HQXh_pFPckdDbp-CF7b-27" edge="1">
          <mxGeometry relative="1" as="geometry" />
        </mxCell>
        <mxCell id="rcMi0wilFv6k0mJdEsaz-48" style="rounded=0;orthogonalLoop=1;jettySize=auto;html=1;exitX=1;exitY=0.5;exitDx=0;exitDy=0;entryX=0.5;entryY=1;entryDx=0;entryDy=0;" edge="1" parent="1" source="hVdwgTMXwn0eozp2v96i-101" target="rcMi0wilFv6k0mJdEsaz-43">
          <mxGeometry relative="1" as="geometry" />
        </mxCell>
        <mxCell id="rcMi0wilFv6k0mJdEsaz-83" style="edgeStyle=none;rounded=0;orthogonalLoop=1;jettySize=auto;html=1;exitX=1;exitY=0.5;exitDx=0;exitDy=0;entryX=0.5;entryY=1;entryDx=0;entryDy=0;" edge="1" parent="1" source="hVdwgTMXwn0eozp2v96i-101" target="rcMi0wilFv6k0mJdEsaz-80">
          <mxGeometry relative="1" as="geometry" />
        </mxCell>
        <mxCell id="hVdwgTMXwn0eozp2v96i-101" value="" style="ellipse;whiteSpace=wrap;html=1;aspect=fixed;" parent="1" vertex="1">
          <mxGeometry x="1288" y="-1491" width="60" height="60" as="geometry" />
        </mxCell>
        <mxCell id="hVdwgTMXwn0eozp2v96i-111" style="edgeStyle=orthogonalEdgeStyle;rounded=0;orthogonalLoop=1;jettySize=auto;html=1;exitX=0.5;exitY=0;exitDx=0;exitDy=0;entryX=0;entryY=0.5;entryDx=0;entryDy=0;" parent="1" source="hVdwgTMXwn0eozp2v96i-112" target="hVdwgTMXwn0eozp2v96i-123" edge="1">
          <mxGeometry relative="1" as="geometry" />
        </mxCell>
        <mxCell id="hVdwgTMXwn0eozp2v96i-112" value="" style="rounded=0;whiteSpace=wrap;html=1;rotation=90;" parent="1" vertex="1">
          <mxGeometry x="1958" y="-1470" width="95" height="30" as="geometry" />
        </mxCell>
        <mxCell id="hVdwgTMXwn0eozp2v96i-113" style="edgeStyle=orthogonalEdgeStyle;rounded=0;orthogonalLoop=1;jettySize=auto;html=1;exitX=0.5;exitY=0;exitDx=0;exitDy=0;" parent="1" source="hVdwgTMXwn0eozp2v96i-114" target="hVdwgTMXwn0eozp2v96i-125" edge="1">
          <mxGeometry relative="1" as="geometry" />
        </mxCell>
        <mxCell id="hVdwgTMXwn0eozp2v96i-114" value="" style="rounded=0;whiteSpace=wrap;html=1;rotation=90;" parent="1" vertex="1">
          <mxGeometry x="1958" y="-1121" width="95" height="30" as="geometry" />
        </mxCell>
        <mxCell id="hVdwgTMXwn0eozp2v96i-118" style="edgeStyle=orthogonalEdgeStyle;rounded=0;orthogonalLoop=1;jettySize=auto;html=1;exitX=0.5;exitY=0;exitDx=0;exitDy=0;" parent="1" source="hVdwgTMXwn0eozp2v96i-119" target="hVdwgTMXwn0eozp2v96i-131" edge="1">
          <mxGeometry relative="1" as="geometry" />
        </mxCell>
        <mxCell id="hVdwgTMXwn0eozp2v96i-119" value="" style="rounded=0;whiteSpace=wrap;html=1;rotation=90;" parent="1" vertex="1">
          <mxGeometry x="1958" y="-1865" width="95" height="30" as="geometry" />
        </mxCell>
        <mxCell id="hVdwgTMXwn0eozp2v96i-120" style="edgeStyle=orthogonalEdgeStyle;rounded=0;orthogonalLoop=1;jettySize=auto;html=1;exitX=0.5;exitY=0;exitDx=0;exitDy=0;" parent="1" source="hVdwgTMXwn0eozp2v96i-121" target="hVdwgTMXwn0eozp2v96i-133" edge="1">
          <mxGeometry relative="1" as="geometry" />
        </mxCell>
        <mxCell id="hVdwgTMXwn0eozp2v96i-121" value="" style="rounded=0;whiteSpace=wrap;html=1;rotation=90;" parent="1" vertex="1">
          <mxGeometry x="1958" y="-1646" width="95" height="30" as="geometry" />
        </mxCell>
        <mxCell id="hVdwgTMXwn0eozp2v96i-122" style="edgeStyle=orthogonalEdgeStyle;rounded=0;orthogonalLoop=1;jettySize=auto;html=1;exitX=1;exitY=0.5;exitDx=0;exitDy=0;" parent="1" source="hVdwgTMXwn0eozp2v96i-123" target="hVdwgTMXwn0eozp2v96i-127" edge="1">
          <mxGeometry relative="1" as="geometry" />
        </mxCell>
        <mxCell id="hVdwgTMXwn0eozp2v96i-123" value="" style="ellipse;whiteSpace=wrap;html=1;aspect=fixed;" parent="1" vertex="1">
          <mxGeometry x="2108" y="-1485" width="60" height="60" as="geometry" />
        </mxCell>
        <mxCell id="hVdwgTMXwn0eozp2v96i-124" style="edgeStyle=orthogonalEdgeStyle;rounded=0;orthogonalLoop=1;jettySize=auto;html=1;exitX=1;exitY=0.5;exitDx=0;exitDy=0;entryX=0.5;entryY=1;entryDx=0;entryDy=0;" parent="1" source="hVdwgTMXwn0eozp2v96i-125" target="hVdwgTMXwn0eozp2v96i-129" edge="1">
          <mxGeometry relative="1" as="geometry" />
        </mxCell>
        <mxCell id="hVdwgTMXwn0eozp2v96i-125" value="" style="ellipse;whiteSpace=wrap;html=1;aspect=fixed;" parent="1" vertex="1">
          <mxGeometry x="2108" y="-1136" width="60" height="60" as="geometry" />
        </mxCell>
        <mxCell id="Ne4zD6o56oPT8uHqeSny-31" style="edgeStyle=orthogonalEdgeStyle;rounded=0;orthogonalLoop=1;jettySize=auto;html=1;exitX=0.5;exitY=0;exitDx=0;exitDy=0;entryX=0;entryY=0;entryDx=0;entryDy=0;" parent="1" source="hVdwgTMXwn0eozp2v96i-127" target="hVdwgTMXwn0eozp2v96i-51" edge="1">
          <mxGeometry relative="1" as="geometry">
            <Array as="points">
              <mxPoint x="2590" y="-1455" />
              <mxPoint x="2590" y="-70" />
              <mxPoint x="2100" y="-70" />
              <mxPoint x="2100" y="761" />
            </Array>
          </mxGeometry>
        </mxCell>
        <mxCell id="hVdwgTMXwn0eozp2v96i-127" value="" style="rounded=0;whiteSpace=wrap;html=1;rotation=90;" parent="1" vertex="1">
          <mxGeometry x="2209" y="-1470" width="95" height="30" as="geometry" />
        </mxCell>
        <mxCell id="Ne4zD6o56oPT8uHqeSny-32" style="edgeStyle=orthogonalEdgeStyle;rounded=0;orthogonalLoop=1;jettySize=auto;html=1;exitX=0.5;exitY=0;exitDx=0;exitDy=0;entryX=0;entryY=0;entryDx=0;entryDy=0;" parent="1" source="hVdwgTMXwn0eozp2v96i-129" target="hVdwgTMXwn0eozp2v96i-52" edge="1">
          <mxGeometry relative="1" as="geometry">
            <mxPoint x="2251.5" y="-368" as="sourcePoint" />
            <mxPoint x="2098.7867965644036" y="824.7867965644036" as="targetPoint" />
            <Array as="points">
              <mxPoint x="2500" y="-1106" />
              <mxPoint x="2500" y="-140" />
              <mxPoint x="2060" y="-140" />
              <mxPoint x="2060" y="1097" />
            </Array>
          </mxGeometry>
        </mxCell>
        <mxCell id="hVdwgTMXwn0eozp2v96i-129" value="" style="rounded=0;whiteSpace=wrap;html=1;rotation=90;" parent="1" vertex="1">
          <mxGeometry x="2209" y="-1121" width="95" height="30" as="geometry" />
        </mxCell>
        <mxCell id="hVdwgTMXwn0eozp2v96i-130" style="edgeStyle=orthogonalEdgeStyle;rounded=0;orthogonalLoop=1;jettySize=auto;html=1;exitX=1;exitY=0.5;exitDx=0;exitDy=0;" parent="1" source="hVdwgTMXwn0eozp2v96i-131" target="hVdwgTMXwn0eozp2v96i-135" edge="1">
          <mxGeometry relative="1" as="geometry" />
        </mxCell>
        <mxCell id="hVdwgTMXwn0eozp2v96i-131" value="" style="ellipse;whiteSpace=wrap;html=1;aspect=fixed;" parent="1" vertex="1">
          <mxGeometry x="2108" y="-1880" width="60" height="60" as="geometry" />
        </mxCell>
        <mxCell id="hVdwgTMXwn0eozp2v96i-132" style="edgeStyle=orthogonalEdgeStyle;rounded=0;orthogonalLoop=1;jettySize=auto;html=1;exitX=1;exitY=0.5;exitDx=0;exitDy=0;" parent="1" source="hVdwgTMXwn0eozp2v96i-133" target="hVdwgTMXwn0eozp2v96i-137" edge="1">
          <mxGeometry relative="1" as="geometry" />
        </mxCell>
        <mxCell id="hVdwgTMXwn0eozp2v96i-133" value="" style="ellipse;whiteSpace=wrap;html=1;aspect=fixed;" parent="1" vertex="1">
          <mxGeometry x="2108" y="-1661" width="60" height="60" as="geometry" />
        </mxCell>
        <mxCell id="Ne4zD6o56oPT8uHqeSny-29" style="rounded=0;orthogonalLoop=1;jettySize=auto;html=1;exitX=0.5;exitY=0;exitDx=0;exitDy=0;entryX=0.5;entryY=0;entryDx=0;entryDy=0;edgeStyle=orthogonalEdgeStyle;" parent="1" source="hVdwgTMXwn0eozp2v96i-135" target="hVdwgTMXwn0eozp2v96i-55" edge="1">
          <mxGeometry relative="1" as="geometry">
            <mxPoint x="2140" y="470" as="targetPoint" />
            <Array as="points">
              <mxPoint x="2271" y="-1860" />
              <mxPoint x="2670" y="-1860" />
              <mxPoint x="2670" y="10" />
              <mxPoint x="2140" y="10" />
            </Array>
          </mxGeometry>
        </mxCell>
        <mxCell id="hVdwgTMXwn0eozp2v96i-135" value="" style="rounded=0;whiteSpace=wrap;html=1;rotation=90;" parent="1" vertex="1">
          <mxGeometry x="2209" y="-1865" width="95" height="30" as="geometry" />
        </mxCell>
        <mxCell id="Ne4zD6o56oPT8uHqeSny-30" style="edgeStyle=orthogonalEdgeStyle;rounded=0;orthogonalLoop=1;jettySize=auto;html=1;exitX=0.5;exitY=0;exitDx=0;exitDy=0;" parent="1" source="hVdwgTMXwn0eozp2v96i-137" target="hVdwgTMXwn0eozp2v96i-56" edge="1">
          <mxGeometry relative="1" as="geometry">
            <Array as="points">
              <mxPoint x="2271" y="-1640" />
              <mxPoint x="2630" y="-1640" />
              <mxPoint x="2630" y="-30" />
              <mxPoint x="2120" y="-30" />
            </Array>
          </mxGeometry>
        </mxCell>
        <mxCell id="hVdwgTMXwn0eozp2v96i-137" value="" style="rounded=0;whiteSpace=wrap;html=1;rotation=90;" parent="1" vertex="1">
          <mxGeometry x="2209" y="-1646" width="95" height="30" as="geometry" />
        </mxCell>
        <mxCell id="hVdwgTMXwn0eozp2v96i-138" value="nabíjení" style="text;html=1;align=center;verticalAlign=middle;whiteSpace=wrap;rounded=0;" parent="1" vertex="1">
          <mxGeometry x="2108" y="-1910" width="60" height="30" as="geometry" />
        </mxCell>
        <mxCell id="hVdwgTMXwn0eozp2v96i-139" value="nabíjení" style="text;html=1;align=center;verticalAlign=middle;whiteSpace=wrap;rounded=0;" parent="1" vertex="1">
          <mxGeometry x="2108" y="-1695" width="60" height="30" as="geometry" />
        </mxCell>
        <mxCell id="hVdwgTMXwn0eozp2v96i-140" value="nabíjení" style="text;html=1;align=center;verticalAlign=middle;whiteSpace=wrap;rounded=0;" parent="1" vertex="1">
          <mxGeometry x="2108" y="-1516" width="60" height="30" as="geometry" />
        </mxCell>
        <mxCell id="hVdwgTMXwn0eozp2v96i-141" value="nabíjení" style="text;html=1;align=center;verticalAlign=middle;whiteSpace=wrap;rounded=0;" parent="1" vertex="1">
          <mxGeometry x="2108" y="-1166" width="60" height="30" as="geometry" />
        </mxCell>
        <mxCell id="Ne4zD6o56oPT8uHqeSny-63" style="edgeStyle=none;rounded=0;orthogonalLoop=1;jettySize=auto;html=1;exitX=1;exitY=0.5;exitDx=0;exitDy=0;entryX=0.5;entryY=1;entryDx=0;entryDy=0;" parent="1" source="hVdwgTMXwn0eozp2v96i-164" target="Ne4zD6o56oPT8uHqeSny-48" edge="1">
          <mxGeometry relative="1" as="geometry" />
        </mxCell>
        <mxCell id="Ne4zD6o56oPT8uHqeSny-64" style="edgeStyle=none;rounded=0;orthogonalLoop=1;jettySize=auto;html=1;exitX=1;exitY=0.5;exitDx=0;exitDy=0;entryX=0.5;entryY=1;entryDx=0;entryDy=0;" parent="1" source="hVdwgTMXwn0eozp2v96i-164" target="Ne4zD6o56oPT8uHqeSny-50" edge="1">
          <mxGeometry relative="1" as="geometry" />
        </mxCell>
        <mxCell id="Ne4zD6o56oPT8uHqeSny-65" style="edgeStyle=none;rounded=0;orthogonalLoop=1;jettySize=auto;html=1;exitX=1;exitY=0.5;exitDx=0;exitDy=0;entryX=0.5;entryY=1;entryDx=0;entryDy=0;" parent="1" source="hVdwgTMXwn0eozp2v96i-164" target="Ne4zD6o56oPT8uHqeSny-44" edge="1">
          <mxGeometry relative="1" as="geometry" />
        </mxCell>
        <mxCell id="Ne4zD6o56oPT8uHqeSny-66" style="edgeStyle=none;rounded=0;orthogonalLoop=1;jettySize=auto;html=1;exitX=1;exitY=0.5;exitDx=0;exitDy=0;entryX=0.5;entryY=1;entryDx=0;entryDy=0;" parent="1" source="hVdwgTMXwn0eozp2v96i-164" target="Ne4zD6o56oPT8uHqeSny-46" edge="1">
          <mxGeometry relative="1" as="geometry" />
        </mxCell>
        <mxCell id="6HQXh_pFPckdDbp-CF7b-90" style="edgeStyle=none;rounded=0;orthogonalLoop=1;jettySize=auto;html=1;exitX=1;exitY=0.5;exitDx=0;exitDy=0;entryX=0.5;entryY=1;entryDx=0;entryDy=0;" parent="1" source="hVdwgTMXwn0eozp2v96i-164" target="6HQXh_pFPckdDbp-CF7b-74" edge="1">
          <mxGeometry relative="1" as="geometry" />
        </mxCell>
        <mxCell id="6HQXh_pFPckdDbp-CF7b-91" style="edgeStyle=none;rounded=0;orthogonalLoop=1;jettySize=auto;html=1;exitX=1;exitY=0.5;exitDx=0;exitDy=0;entryX=0.5;entryY=1;entryDx=0;entryDy=0;" parent="1" source="hVdwgTMXwn0eozp2v96i-164" target="6HQXh_pFPckdDbp-CF7b-86" edge="1">
          <mxGeometry relative="1" as="geometry" />
        </mxCell>
        <mxCell id="rcMi0wilFv6k0mJdEsaz-63" style="rounded=0;orthogonalLoop=1;jettySize=auto;html=1;exitX=1;exitY=0.5;exitDx=0;exitDy=0;entryX=0.5;entryY=1;entryDx=0;entryDy=0;" edge="1" parent="1" source="hVdwgTMXwn0eozp2v96i-164" target="rcMi0wilFv6k0mJdEsaz-58">
          <mxGeometry relative="1" as="geometry" />
        </mxCell>
        <mxCell id="rcMi0wilFv6k0mJdEsaz-115" style="edgeStyle=none;rounded=0;orthogonalLoop=1;jettySize=auto;html=1;exitX=1;exitY=0.5;exitDx=0;exitDy=0;entryX=0.5;entryY=1;entryDx=0;entryDy=0;" edge="1" parent="1" source="hVdwgTMXwn0eozp2v96i-164" target="rcMi0wilFv6k0mJdEsaz-107">
          <mxGeometry relative="1" as="geometry" />
        </mxCell>
        <mxCell id="hVdwgTMXwn0eozp2v96i-164" value="" style="ellipse;whiteSpace=wrap;html=1;aspect=fixed;" parent="1" vertex="1">
          <mxGeometry x="1290" y="3148" width="60" height="60" as="geometry" />
        </mxCell>
        <mxCell id="hVdwgTMXwn0eozp2v96i-174" style="edgeStyle=orthogonalEdgeStyle;rounded=0;orthogonalLoop=1;jettySize=auto;html=1;exitX=0.5;exitY=0;exitDx=0;exitDy=0;entryX=0;entryY=0.5;entryDx=0;entryDy=0;" parent="1" source="Ne4zD6o56oPT8uHqeSny-39" target="hVdwgTMXwn0eozp2v96i-186" edge="1">
          <mxGeometry relative="1" as="geometry">
            <mxPoint x="2032.5" y="3174" as="sourcePoint" />
          </mxGeometry>
        </mxCell>
        <mxCell id="hVdwgTMXwn0eozp2v96i-176" style="edgeStyle=orthogonalEdgeStyle;rounded=0;orthogonalLoop=1;jettySize=auto;html=1;exitX=0.5;exitY=0;exitDx=0;exitDy=0;" parent="1" source="Ne4zD6o56oPT8uHqeSny-40" target="hVdwgTMXwn0eozp2v96i-188" edge="1">
          <mxGeometry relative="1" as="geometry">
            <mxPoint x="2032.5" y="3533" as="sourcePoint" />
          </mxGeometry>
        </mxCell>
        <mxCell id="hVdwgTMXwn0eozp2v96i-181" style="edgeStyle=orthogonalEdgeStyle;rounded=0;orthogonalLoop=1;jettySize=auto;html=1;exitX=0.5;exitY=0;exitDx=0;exitDy=0;" parent="1" source="Ne4zD6o56oPT8uHqeSny-41" target="hVdwgTMXwn0eozp2v96i-192" edge="1">
          <mxGeometry relative="1" as="geometry">
            <mxPoint x="2032.5" y="2719" as="sourcePoint" />
          </mxGeometry>
        </mxCell>
        <mxCell id="hVdwgTMXwn0eozp2v96i-183" style="edgeStyle=orthogonalEdgeStyle;rounded=0;orthogonalLoop=1;jettySize=auto;html=1;exitX=0.5;exitY=0;exitDx=0;exitDy=0;" parent="1" source="Ne4zD6o56oPT8uHqeSny-42" target="hVdwgTMXwn0eozp2v96i-194" edge="1">
          <mxGeometry relative="1" as="geometry">
            <mxPoint x="2032.5" y="2938" as="sourcePoint" />
          </mxGeometry>
        </mxCell>
        <mxCell id="hVdwgTMXwn0eozp2v96i-185" style="edgeStyle=orthogonalEdgeStyle;rounded=0;orthogonalLoop=1;jettySize=auto;html=1;exitX=1;exitY=0.5;exitDx=0;exitDy=0;" parent="1" source="hVdwgTMXwn0eozp2v96i-186" target="hVdwgTMXwn0eozp2v96i-189" edge="1">
          <mxGeometry relative="1" as="geometry" />
        </mxCell>
        <mxCell id="hVdwgTMXwn0eozp2v96i-186" value="" style="ellipse;whiteSpace=wrap;html=1;aspect=fixed;" parent="1" vertex="1">
          <mxGeometry x="2120" y="3144" width="60" height="60" as="geometry" />
        </mxCell>
        <mxCell id="hVdwgTMXwn0eozp2v96i-187" style="edgeStyle=orthogonalEdgeStyle;rounded=0;orthogonalLoop=1;jettySize=auto;html=1;exitX=1;exitY=0.5;exitDx=0;exitDy=0;entryX=0.5;entryY=1;entryDx=0;entryDy=0;" parent="1" source="hVdwgTMXwn0eozp2v96i-188" target="hVdwgTMXwn0eozp2v96i-190" edge="1">
          <mxGeometry relative="1" as="geometry" />
        </mxCell>
        <mxCell id="hVdwgTMXwn0eozp2v96i-188" value="" style="ellipse;whiteSpace=wrap;html=1;aspect=fixed;" parent="1" vertex="1">
          <mxGeometry x="2120" y="3503" width="60" height="60" as="geometry" />
        </mxCell>
        <mxCell id="hVdwgTMXwn0eozp2v96i-228" style="rounded=0;orthogonalLoop=1;jettySize=auto;html=1;exitX=0.5;exitY=0;exitDx=0;exitDy=0;entryX=0;entryY=0.5;entryDx=0;entryDy=0;" parent="1" source="hVdwgTMXwn0eozp2v96i-189" target="hVdwgTMXwn0eozp2v96i-219" edge="1">
          <mxGeometry relative="1" as="geometry" />
        </mxCell>
        <mxCell id="CMwm_mQ0izCvLeI7IXAa-20" style="edgeStyle=none;rounded=0;orthogonalLoop=1;jettySize=auto;html=1;exitX=0;exitY=0.5;exitDx=0;exitDy=0;entryX=1;entryY=1;entryDx=0;entryDy=0;fillColor=#dae8fc;strokeColor=#6c8ebf;strokeWidth=2;" parent="1" source="hVdwgTMXwn0eozp2v96i-189" target="hVdwgTMXwn0eozp2v96i-212" edge="1">
          <mxGeometry relative="1" as="geometry" />
        </mxCell>
        <mxCell id="hVdwgTMXwn0eozp2v96i-189" value="" style="rounded=0;whiteSpace=wrap;html=1;rotation=90;" parent="1" vertex="1">
          <mxGeometry x="2221" y="3159" width="95" height="30" as="geometry" />
        </mxCell>
        <mxCell id="hVdwgTMXwn0eozp2v96i-229" style="rounded=0;orthogonalLoop=1;jettySize=auto;html=1;exitX=0.5;exitY=0;exitDx=0;exitDy=0;entryX=0;entryY=0.5;entryDx=0;entryDy=0;" parent="1" source="hVdwgTMXwn0eozp2v96i-190" target="hVdwgTMXwn0eozp2v96i-219" edge="1">
          <mxGeometry relative="1" as="geometry" />
        </mxCell>
        <mxCell id="CMwm_mQ0izCvLeI7IXAa-21" style="edgeStyle=none;rounded=0;orthogonalLoop=1;jettySize=auto;html=1;exitX=0;exitY=0.5;exitDx=0;exitDy=0;entryX=1;entryY=1;entryDx=0;entryDy=0;fillColor=#d5e8d4;strokeColor=#82b366;strokeWidth=2;" parent="1" source="hVdwgTMXwn0eozp2v96i-190" target="hVdwgTMXwn0eozp2v96i-215" edge="1">
          <mxGeometry relative="1" as="geometry" />
        </mxCell>
        <mxCell id="hVdwgTMXwn0eozp2v96i-190" value="" style="rounded=0;whiteSpace=wrap;html=1;rotation=90;" parent="1" vertex="1">
          <mxGeometry x="2221" y="3518" width="95" height="30" as="geometry" />
        </mxCell>
        <mxCell id="hVdwgTMXwn0eozp2v96i-191" style="edgeStyle=orthogonalEdgeStyle;rounded=0;orthogonalLoop=1;jettySize=auto;html=1;exitX=1;exitY=0.5;exitDx=0;exitDy=0;" parent="1" source="hVdwgTMXwn0eozp2v96i-192" target="hVdwgTMXwn0eozp2v96i-195" edge="1">
          <mxGeometry relative="1" as="geometry" />
        </mxCell>
        <mxCell id="hVdwgTMXwn0eozp2v96i-193" style="edgeStyle=orthogonalEdgeStyle;rounded=0;orthogonalLoop=1;jettySize=auto;html=1;exitX=1;exitY=0.5;exitDx=0;exitDy=0;" parent="1" source="hVdwgTMXwn0eozp2v96i-194" target="hVdwgTMXwn0eozp2v96i-196" edge="1">
          <mxGeometry relative="1" as="geometry" />
        </mxCell>
        <mxCell id="hVdwgTMXwn0eozp2v96i-194" value="" style="ellipse;whiteSpace=wrap;html=1;aspect=fixed;" parent="1" vertex="1">
          <mxGeometry x="2120" y="2908" width="60" height="60" as="geometry" />
        </mxCell>
        <mxCell id="hVdwgTMXwn0eozp2v96i-226" style="rounded=0;orthogonalLoop=1;jettySize=auto;html=1;exitX=0.5;exitY=0;exitDx=0;exitDy=0;entryX=0;entryY=0.5;entryDx=0;entryDy=0;" parent="1" source="hVdwgTMXwn0eozp2v96i-195" target="hVdwgTMXwn0eozp2v96i-219" edge="1">
          <mxGeometry relative="1" as="geometry" />
        </mxCell>
        <mxCell id="CMwm_mQ0izCvLeI7IXAa-17" style="edgeStyle=none;rounded=0;orthogonalLoop=1;jettySize=auto;html=1;exitX=0.5;exitY=0;exitDx=0;exitDy=0;entryX=1;entryY=1;entryDx=0;entryDy=0;fillColor=#f8cecc;strokeColor=#b85450;strokeWidth=2;" parent="1" source="hVdwgTMXwn0eozp2v96i-195" target="hVdwgTMXwn0eozp2v96i-79" edge="1">
          <mxGeometry relative="1" as="geometry" />
        </mxCell>
        <mxCell id="hVdwgTMXwn0eozp2v96i-195" value="" style="rounded=0;whiteSpace=wrap;html=1;rotation=90;" parent="1" vertex="1">
          <mxGeometry x="2221" y="2704" width="95" height="30" as="geometry" />
        </mxCell>
        <mxCell id="hVdwgTMXwn0eozp2v96i-227" style="rounded=0;orthogonalLoop=1;jettySize=auto;html=1;exitX=0.5;exitY=0;exitDx=0;exitDy=0;entryX=0;entryY=0.5;entryDx=0;entryDy=0;" parent="1" source="hVdwgTMXwn0eozp2v96i-196" target="hVdwgTMXwn0eozp2v96i-219" edge="1">
          <mxGeometry relative="1" as="geometry">
            <mxPoint x="2640" y="1963" as="targetPoint" />
          </mxGeometry>
        </mxCell>
        <mxCell id="CMwm_mQ0izCvLeI7IXAa-19" style="edgeStyle=none;rounded=0;orthogonalLoop=1;jettySize=auto;html=1;exitX=0;exitY=0.5;exitDx=0;exitDy=0;entryX=1;entryY=1;entryDx=0;entryDy=0;fillColor=#e1d5e7;strokeColor=#9673a6;strokeWidth=2;" parent="1" source="hVdwgTMXwn0eozp2v96i-196" target="hVdwgTMXwn0eozp2v96i-209" edge="1">
          <mxGeometry relative="1" as="geometry" />
        </mxCell>
        <mxCell id="hVdwgTMXwn0eozp2v96i-196" value="" style="rounded=0;whiteSpace=wrap;html=1;rotation=90;" parent="1" vertex="1">
          <mxGeometry x="2221" y="2923" width="95" height="30" as="geometry" />
        </mxCell>
        <mxCell id="hVdwgTMXwn0eozp2v96i-197" value="nabíjení" style="text;html=1;align=center;verticalAlign=middle;whiteSpace=wrap;rounded=0;" parent="1" vertex="1">
          <mxGeometry x="2120" y="2659" width="60" height="30" as="geometry" />
        </mxCell>
        <mxCell id="hVdwgTMXwn0eozp2v96i-198" value="nabíjení" style="text;html=1;align=center;verticalAlign=middle;whiteSpace=wrap;rounded=0;" parent="1" vertex="1">
          <mxGeometry x="2120" y="2874" width="60" height="30" as="geometry" />
        </mxCell>
        <mxCell id="hVdwgTMXwn0eozp2v96i-199" value="nabíjení" style="text;html=1;align=center;verticalAlign=middle;whiteSpace=wrap;rounded=0;" parent="1" vertex="1">
          <mxGeometry x="2120" y="3113" width="60" height="30" as="geometry" />
        </mxCell>
        <mxCell id="hVdwgTMXwn0eozp2v96i-200" value="nabíjení" style="text;html=1;align=center;verticalAlign=middle;whiteSpace=wrap;rounded=0;" parent="1" vertex="1">
          <mxGeometry x="2120" y="3473" width="60" height="30" as="geometry" />
        </mxCell>
        <mxCell id="CMwm_mQ0izCvLeI7IXAa-4" style="edgeStyle=none;rounded=0;orthogonalLoop=1;jettySize=auto;html=1;exitX=1;exitY=0.5;exitDx=0;exitDy=0;entryX=0.75;entryY=1;entryDx=0;entryDy=0;fillColor=#e1d5e7;strokeColor=#9673a6;" parent="1" source="hVdwgTMXwn0eozp2v96i-209" target="hVdwgTMXwn0eozp2v96i-121" edge="1">
          <mxGeometry relative="1" as="geometry" />
        </mxCell>
        <mxCell id="CMwm_mQ0izCvLeI7IXAa-6" style="edgeStyle=none;rounded=0;orthogonalLoop=1;jettySize=auto;html=1;exitX=1;exitY=0.5;exitDx=0;exitDy=0;entryX=0.25;entryY=1;entryDx=0;entryDy=0;fillColor=#e1d5e7;strokeColor=#9673a6;" parent="1" source="hVdwgTMXwn0eozp2v96i-209" target="Ne4zD6o56oPT8uHqeSny-42" edge="1">
          <mxGeometry relative="1" as="geometry">
            <mxPoint x="2002.5" y="1684.25" as="targetPoint" />
          </mxGeometry>
        </mxCell>
        <mxCell id="Ne4zD6o56oPT8uHqeSny-36" style="edgeStyle=none;rounded=0;orthogonalLoop=1;jettySize=auto;html=1;exitX=1;exitY=0.5;exitDx=0;exitDy=0;entryX=0.25;entryY=1;entryDx=0;entryDy=0;fillColor=#e1d5e7;strokeColor=#9673a6;" parent="1" source="hVdwgTMXwn0eozp2v96i-209" target="Ne4zD6o56oPT8uHqeSny-16" edge="1">
          <mxGeometry relative="1" as="geometry" />
        </mxCell>
        <mxCell id="hVdwgTMXwn0eozp2v96i-209" value="" style="ellipse;whiteSpace=wrap;html=1;aspect=fixed;fillColor=#e1d5e7;strokeColor=#9673a6;" parent="1" vertex="1">
          <mxGeometry x="1156" y="-357" width="118" height="113" as="geometry" />
        </mxCell>
        <mxCell id="hVdwgTMXwn0eozp2v96i-210" value="&lt;span style=&quot;font-size: 35px;&quot;&gt;197&lt;/span&gt;" style="text;html=1;align=center;verticalAlign=middle;whiteSpace=wrap;rounded=0;fillColor=#e1d5e7;strokeColor=#9673a6;" parent="1" vertex="1">
          <mxGeometry x="1184" y="-312" width="60" height="25" as="geometry" />
        </mxCell>
        <mxCell id="hVdwgTMXwn0eozp2v96i-211" value="Sklad&amp;nbsp;&lt;div&gt;22 kW&lt;/div&gt;&lt;div&gt;nabíječek&lt;/div&gt;" style="text;html=1;align=center;verticalAlign=middle;whiteSpace=wrap;rounded=0;fillColor=#e1d5e7;strokeColor=#9673a6;" parent="1" vertex="1">
          <mxGeometry x="1179" y="-239" width="72" height="44" as="geometry" />
        </mxCell>
        <mxCell id="CMwm_mQ0izCvLeI7IXAa-7" style="edgeStyle=none;rounded=0;orthogonalLoop=1;jettySize=auto;html=1;exitX=1;exitY=0.5;exitDx=0;exitDy=0;entryX=0.75;entryY=1;entryDx=0;entryDy=0;fillColor=#dae8fc;strokeColor=#6c8ebf;" parent="1" source="hVdwgTMXwn0eozp2v96i-212" target="hVdwgTMXwn0eozp2v96i-112" edge="1">
          <mxGeometry relative="1" as="geometry" />
        </mxCell>
        <mxCell id="CMwm_mQ0izCvLeI7IXAa-9" style="edgeStyle=none;rounded=0;orthogonalLoop=1;jettySize=auto;html=1;exitX=1;exitY=0.5;exitDx=0;exitDy=0;fillColor=#dae8fc;strokeColor=#6c8ebf;entryX=0.25;entryY=1;entryDx=0;entryDy=0;" parent="1" source="hVdwgTMXwn0eozp2v96i-212" target="Ne4zD6o56oPT8uHqeSny-39" edge="1">
          <mxGeometry relative="1" as="geometry">
            <mxPoint x="1990" y="3110" as="targetPoint" />
          </mxGeometry>
        </mxCell>
        <mxCell id="Ne4zD6o56oPT8uHqeSny-37" style="edgeStyle=none;rounded=0;orthogonalLoop=1;jettySize=auto;html=1;exitX=1;exitY=0.5;exitDx=0;exitDy=0;entryX=0.75;entryY=1;entryDx=0;entryDy=0;fillColor=#dae8fc;strokeColor=#6c8ebf;" parent="1" source="hVdwgTMXwn0eozp2v96i-212" target="Ne4zD6o56oPT8uHqeSny-13" edge="1">
          <mxGeometry relative="1" as="geometry" />
        </mxCell>
        <mxCell id="hVdwgTMXwn0eozp2v96i-212" value="" style="ellipse;whiteSpace=wrap;html=1;aspect=fixed;fillColor=#dae8fc;strokeColor=#6c8ebf;" parent="1" vertex="1">
          <mxGeometry x="1152.5" y="1706" width="118" height="118" as="geometry" />
        </mxCell>
        <mxCell id="hVdwgTMXwn0eozp2v96i-213" value="&lt;span style=&quot;font-size: 35px;&quot;&gt;54&lt;/span&gt;" style="text;html=1;align=center;verticalAlign=middle;whiteSpace=wrap;rounded=0;fillColor=#dae8fc;strokeColor=#6c8ebf;" parent="1" vertex="1">
          <mxGeometry x="1180.5" y="1751" width="60" height="30" as="geometry" />
        </mxCell>
        <mxCell id="hVdwgTMXwn0eozp2v96i-214" value="Sklad&lt;br&gt;&lt;div&gt;50 kW&lt;/div&gt;&lt;div&gt;&amp;nbsp;nabíječek&lt;/div&gt;" style="text;html=1;align=center;verticalAlign=middle;whiteSpace=wrap;rounded=0;fillColor=#dae8fc;strokeColor=#6c8ebf;" parent="1" vertex="1">
          <mxGeometry x="1175.5" y="1824" width="72" height="49" as="geometry" />
        </mxCell>
        <mxCell id="CMwm_mQ0izCvLeI7IXAa-10" style="rounded=0;orthogonalLoop=1;jettySize=auto;html=1;exitX=1;exitY=0.5;exitDx=0;exitDy=0;entryX=0.75;entryY=1;entryDx=0;entryDy=0;fillColor=#d5e8d4;strokeColor=#82b366;" parent="1" source="hVdwgTMXwn0eozp2v96i-215" target="hVdwgTMXwn0eozp2v96i-114" edge="1">
          <mxGeometry relative="1" as="geometry" />
        </mxCell>
        <mxCell id="CMwm_mQ0izCvLeI7IXAa-12" style="edgeStyle=none;rounded=0;orthogonalLoop=1;jettySize=auto;html=1;exitX=0.5;exitY=0;exitDx=0;exitDy=0;entryX=0.25;entryY=1;entryDx=0;entryDy=0;fillColor=#d5e8d4;strokeColor=#82b366;" parent="1" source="hVdwgTMXwn0eozp2v96i-215" target="Ne4zD6o56oPT8uHqeSny-40" edge="1">
          <mxGeometry relative="1" as="geometry">
            <mxPoint x="2010" y="3305.5" as="targetPoint" />
          </mxGeometry>
        </mxCell>
        <mxCell id="Ne4zD6o56oPT8uHqeSny-38" style="edgeStyle=none;rounded=0;orthogonalLoop=1;jettySize=auto;html=1;exitX=1;exitY=0.5;exitDx=0;exitDy=0;entryX=0.75;entryY=1;entryDx=0;entryDy=0;fillColor=#d5e8d4;strokeColor=#82b366;" parent="1" source="hVdwgTMXwn0eozp2v96i-215" target="Ne4zD6o56oPT8uHqeSny-14" edge="1">
          <mxGeometry relative="1" as="geometry" />
        </mxCell>
        <mxCell id="hVdwgTMXwn0eozp2v96i-215" value="" style="ellipse;whiteSpace=wrap;html=1;aspect=fixed;fillColor=#d5e8d4;strokeColor=#82b366;" parent="1" vertex="1">
          <mxGeometry x="1156.5" y="2133" width="118" height="118" as="geometry" />
        </mxCell>
        <mxCell id="hVdwgTMXwn0eozp2v96i-216" value="&lt;span style=&quot;font-size: 35px;&quot;&gt;11&lt;/span&gt;" style="text;html=1;align=center;verticalAlign=middle;whiteSpace=wrap;rounded=0;fillColor=#d5e8d4;strokeColor=#82b366;" parent="1" vertex="1">
          <mxGeometry x="1184.5" y="2178" width="60" height="30" as="geometry" />
        </mxCell>
        <mxCell id="hVdwgTMXwn0eozp2v96i-217" value="Sklad&amp;nbsp;&lt;div&gt;108 kW&lt;br&gt;&lt;div&gt;nabíječek&lt;/div&gt;&lt;/div&gt;" style="text;html=1;align=center;verticalAlign=middle;whiteSpace=wrap;rounded=0;fillColor=#d5e8d4;strokeColor=#82b366;" parent="1" vertex="1">
          <mxGeometry x="1179.5" y="2251" width="72" height="59" as="geometry" />
        </mxCell>
        <mxCell id="hVdwgTMXwn0eozp2v96i-230" style="edgeStyle=orthogonalEdgeStyle;rounded=0;orthogonalLoop=1;jettySize=auto;html=1;exitX=1;exitY=0.5;exitDx=0;exitDy=0;entryX=0.5;entryY=1;entryDx=0;entryDy=0;" parent="1" source="hVdwgTMXwn0eozp2v96i-219" target="hVdwgTMXwn0eozp2v96i-231" edge="1">
          <mxGeometry relative="1" as="geometry">
            <mxPoint x="2840" y="1737.7692307692305" as="targetPoint" />
          </mxGeometry>
        </mxCell>
        <mxCell id="hVdwgTMXwn0eozp2v96i-219" value="" style="ellipse;whiteSpace=wrap;html=1;aspect=fixed;" parent="1" vertex="1">
          <mxGeometry x="2640" y="1693" width="90" height="90" as="geometry" />
        </mxCell>
        <mxCell id="hVdwgTMXwn0eozp2v96i-221" value="&lt;font style=&quot;font-size: 20px;&quot;&gt;nabito&lt;/font&gt;" style="text;html=1;align=center;verticalAlign=middle;whiteSpace=wrap;rounded=0;" parent="1" vertex="1">
          <mxGeometry x="2655" y="1783" width="60" height="30" as="geometry" />
        </mxCell>
        <mxCell id="hVdwgTMXwn0eozp2v96i-231" value="" style="rounded=0;whiteSpace=wrap;html=1;rotation=90;" parent="1" vertex="1">
          <mxGeometry x="2783.5" y="1713" width="163" height="49" as="geometry" />
        </mxCell>
        <mxCell id="hVdwgTMXwn0eozp2v96i-232" value="&lt;font style=&quot;font-size: 20px;&quot;&gt;opuštění systému&lt;/font&gt;" style="text;html=1;align=center;verticalAlign=middle;whiteSpace=wrap;rounded=0;" parent="1" vertex="1">
          <mxGeometry x="2789" y="1813" width="165" height="67" as="geometry" />
        </mxCell>
        <mxCell id="hVdwgTMXwn0eozp2v96i-55" value="" style="ellipse;whiteSpace=wrap;html=1;aspect=fixed;" parent="1" vertex="1">
          <mxGeometry x="2110" y="324" width="60" height="60" as="geometry" />
        </mxCell>
        <mxCell id="hVdwgTMXwn0eozp2v96i-71" value="nabíjení" style="text;html=1;align=center;verticalAlign=middle;whiteSpace=wrap;rounded=0;" parent="1" vertex="1">
          <mxGeometry x="2151" y="384" width="60" height="30" as="geometry" />
        </mxCell>
        <mxCell id="hVdwgTMXwn0eozp2v96i-56" value="" style="ellipse;whiteSpace=wrap;html=1;aspect=fixed;" parent="1" vertex="1">
          <mxGeometry x="2110" y="543" width="60" height="60" as="geometry" />
        </mxCell>
        <mxCell id="hVdwgTMXwn0eozp2v96i-51" value="" style="ellipse;whiteSpace=wrap;html=1;aspect=fixed;" parent="1" vertex="1">
          <mxGeometry x="2110" y="752" width="60" height="60" as="geometry" />
        </mxCell>
        <mxCell id="F5v0ubk2e97Cs9xb3qZI-22" value="0 - 1,19 h" style="text;html=1;align=center;verticalAlign=middle;whiteSpace=wrap;rounded=0;" parent="1" vertex="1">
          <mxGeometry x="2228.5" y="-1797" width="60" height="30" as="geometry" />
        </mxCell>
        <mxCell id="F5v0ubk2e97Cs9xb3qZI-23" value="0 - 0,65 h" style="text;html=1;align=center;verticalAlign=middle;whiteSpace=wrap;rounded=0;" parent="1" vertex="1">
          <mxGeometry x="2226.5" y="-1582" width="60" height="30" as="geometry" />
        </mxCell>
        <mxCell id="F5v0ubk2e97Cs9xb3qZI-24" value="0 - 0,57 h" style="text;html=1;align=center;verticalAlign=middle;whiteSpace=wrap;rounded=0;" parent="1" vertex="1">
          <mxGeometry x="2226.5" y="-1409" width="60" height="30" as="geometry" />
        </mxCell>
        <mxCell id="F5v0ubk2e97Cs9xb3qZI-25" value="0 - 0,26 h" style="text;html=1;align=center;verticalAlign=middle;whiteSpace=wrap;rounded=0;" parent="1" vertex="1">
          <mxGeometry x="2228.5" y="-1059" width="60" height="30" as="geometry" />
        </mxCell>
        <mxCell id="F5v0ubk2e97Cs9xb3qZI-26" value="0 - 3,58 h" style="text;html=1;align=center;verticalAlign=middle;whiteSpace=wrap;rounded=0;" parent="1" vertex="1">
          <mxGeometry x="2228.5" y="403" width="60" height="30" as="geometry" />
        </mxCell>
        <mxCell id="F5v0ubk2e97Cs9xb3qZI-27" value="0 - 1,95 h" style="text;html=1;align=center;verticalAlign=middle;whiteSpace=wrap;rounded=0;" parent="1" vertex="1">
          <mxGeometry x="2228.5" y="622" width="60" height="30" as="geometry" />
        </mxCell>
        <mxCell id="F5v0ubk2e97Cs9xb3qZI-28" value="0 - 1,01 h" style="text;html=1;align=center;verticalAlign=middle;whiteSpace=wrap;rounded=0;" parent="1" vertex="1">
          <mxGeometry x="2228.5" y="828" width="60" height="30" as="geometry" />
        </mxCell>
        <mxCell id="F5v0ubk2e97Cs9xb3qZI-29" value="0 - 0,47 h" style="text;html=1;align=center;verticalAlign=middle;whiteSpace=wrap;rounded=0;" parent="1" vertex="1">
          <mxGeometry x="2228.5" y="1165" width="60" height="30" as="geometry" />
        </mxCell>
        <mxCell id="F5v0ubk2e97Cs9xb3qZI-30" value="0 - 2,38 h" style="text;html=1;align=center;verticalAlign=middle;whiteSpace=wrap;rounded=0;" parent="1" vertex="1">
          <mxGeometry x="2238.5" y="2764" width="60" height="30" as="geometry" />
        </mxCell>
        <mxCell id="F5v0ubk2e97Cs9xb3qZI-31" value="0 - 1,30 h" style="text;html=1;align=center;verticalAlign=middle;whiteSpace=wrap;rounded=0;" parent="1" vertex="1">
          <mxGeometry x="2238.5" y="2987" width="60" height="30" as="geometry" />
        </mxCell>
        <mxCell id="F5v0ubk2e97Cs9xb3qZI-32" value="0 - 0,82 h" style="text;html=1;align=center;verticalAlign=middle;whiteSpace=wrap;rounded=0;" parent="1" vertex="1">
          <mxGeometry x="2238.5" y="3223" width="60" height="30" as="geometry" />
        </mxCell>
        <mxCell id="F5v0ubk2e97Cs9xb3qZI-33" value="0 - 0,38 h" style="text;html=1;align=center;verticalAlign=middle;whiteSpace=wrap;rounded=0;" parent="1" vertex="1">
          <mxGeometry x="2238.5" y="3580" width="60" height="30" as="geometry" />
        </mxCell>
        <mxCell id="hVdwgTMXwn0eozp2v96i-192" value="" style="ellipse;whiteSpace=wrap;html=1;aspect=fixed;" parent="1" vertex="1">
          <mxGeometry x="2120" y="2689" width="60" height="60" as="geometry" />
        </mxCell>
        <mxCell id="DUZmrAGYnQG1LHZdkdyr-18" style="edgeStyle=none;rounded=0;orthogonalLoop=1;jettySize=auto;html=1;exitX=0.5;exitY=0;exitDx=0;exitDy=0;entryX=0;entryY=0.5;entryDx=0;entryDy=0;" parent="1" source="DUZmrAGYnQG1LHZdkdyr-3" target="DUZmrAGYnQG1LHZdkdyr-10" edge="1">
          <mxGeometry relative="1" as="geometry" />
        </mxCell>
        <mxCell id="DUZmrAGYnQG1LHZdkdyr-3" value="" style="rounded=0;whiteSpace=wrap;html=1;rotation=90;" parent="1" vertex="1">
          <mxGeometry x="1560" y="-1473" width="94" height="30" as="geometry" />
        </mxCell>
        <mxCell id="DUZmrAGYnQG1LHZdkdyr-19" style="edgeStyle=none;rounded=0;orthogonalLoop=1;jettySize=auto;html=1;exitX=0.5;exitY=0;exitDx=0;exitDy=0;entryX=0;entryY=0.5;entryDx=0;entryDy=0;" parent="1" source="DUZmrAGYnQG1LHZdkdyr-4" target="DUZmrAGYnQG1LHZdkdyr-11" edge="1">
          <mxGeometry relative="1" as="geometry" />
        </mxCell>
        <mxCell id="DUZmrAGYnQG1LHZdkdyr-4" value="" style="rounded=0;whiteSpace=wrap;html=1;rotation=90;" parent="1" vertex="1">
          <mxGeometry x="1560" y="-1124" width="94" height="30" as="geometry" />
        </mxCell>
        <mxCell id="DUZmrAGYnQG1LHZdkdyr-16" style="edgeStyle=none;rounded=0;orthogonalLoop=1;jettySize=auto;html=1;exitX=0.5;exitY=0;exitDx=0;exitDy=0;entryX=0;entryY=0.5;entryDx=0;entryDy=0;" parent="1" source="DUZmrAGYnQG1LHZdkdyr-5" target="DUZmrAGYnQG1LHZdkdyr-8" edge="1">
          <mxGeometry relative="1" as="geometry" />
        </mxCell>
        <mxCell id="DUZmrAGYnQG1LHZdkdyr-5" value="" style="rounded=0;whiteSpace=wrap;html=1;rotation=90;" parent="1" vertex="1">
          <mxGeometry x="1560" y="-1868" width="94" height="30" as="geometry" />
        </mxCell>
        <mxCell id="DUZmrAGYnQG1LHZdkdyr-20" style="edgeStyle=none;rounded=0;orthogonalLoop=1;jettySize=auto;html=1;exitX=1;exitY=0.5;exitDx=0;exitDy=0;entryX=0.5;entryY=1;entryDx=0;entryDy=0;" parent="1" source="DUZmrAGYnQG1LHZdkdyr-8" target="hVdwgTMXwn0eozp2v96i-119" edge="1">
          <mxGeometry relative="1" as="geometry" />
        </mxCell>
        <mxCell id="DUZmrAGYnQG1LHZdkdyr-21" style="edgeStyle=none;rounded=0;orthogonalLoop=1;jettySize=auto;html=1;exitX=1;exitY=0.5;exitDx=0;exitDy=0;entryX=0.5;entryY=1;entryDx=0;entryDy=0;" parent="1" source="DUZmrAGYnQG1LHZdkdyr-9" target="hVdwgTMXwn0eozp2v96i-121" edge="1">
          <mxGeometry relative="1" as="geometry" />
        </mxCell>
        <mxCell id="DUZmrAGYnQG1LHZdkdyr-9" value="" style="ellipse;whiteSpace=wrap;html=1;aspect=fixed;" parent="1" vertex="1">
          <mxGeometry x="1780" y="-1661" width="60" height="60" as="geometry" />
        </mxCell>
        <mxCell id="DUZmrAGYnQG1LHZdkdyr-22" style="edgeStyle=none;rounded=0;orthogonalLoop=1;jettySize=auto;html=1;exitX=1;exitY=0.5;exitDx=0;exitDy=0;" parent="1" source="DUZmrAGYnQG1LHZdkdyr-10" edge="1">
          <mxGeometry relative="1" as="geometry">
            <mxPoint x="1990" y="-1459.6666666666665" as="targetPoint" />
          </mxGeometry>
        </mxCell>
        <mxCell id="DUZmrAGYnQG1LHZdkdyr-10" value="" style="ellipse;whiteSpace=wrap;html=1;aspect=fixed;" parent="1" vertex="1">
          <mxGeometry x="1780" y="-1490" width="60" height="60" as="geometry" />
        </mxCell>
        <mxCell id="DUZmrAGYnQG1LHZdkdyr-23" style="edgeStyle=none;rounded=0;orthogonalLoop=1;jettySize=auto;html=1;exitX=1;exitY=0.5;exitDx=0;exitDy=0;entryX=0.5;entryY=1;entryDx=0;entryDy=0;" parent="1" source="DUZmrAGYnQG1LHZdkdyr-11" target="hVdwgTMXwn0eozp2v96i-114" edge="1">
          <mxGeometry relative="1" as="geometry" />
        </mxCell>
        <mxCell id="DUZmrAGYnQG1LHZdkdyr-11" value="" style="ellipse;whiteSpace=wrap;html=1;aspect=fixed;" parent="1" vertex="1">
          <mxGeometry x="1780" y="-1136" width="60" height="60" as="geometry" />
        </mxCell>
        <mxCell id="Ne4zD6o56oPT8uHqeSny-26" style="edgeStyle=none;rounded=0;orthogonalLoop=1;jettySize=auto;html=1;exitX=0.5;exitY=0;exitDx=0;exitDy=0;entryX=0;entryY=0.5;entryDx=0;entryDy=0;" parent="1" source="Ne4zD6o56oPT8uHqeSny-1" target="Ne4zD6o56oPT8uHqeSny-22" edge="1">
          <mxGeometry relative="1" as="geometry" />
        </mxCell>
        <mxCell id="Ne4zD6o56oPT8uHqeSny-1" value="" style="rounded=0;whiteSpace=wrap;html=1;rotation=90;" parent="1" vertex="1">
          <mxGeometry x="1210" y="770" width="94" height="30" as="geometry" />
        </mxCell>
        <mxCell id="Ne4zD6o56oPT8uHqeSny-25" style="edgeStyle=none;rounded=0;orthogonalLoop=1;jettySize=auto;html=1;exitX=0.5;exitY=0;exitDx=0;exitDy=0;entryX=0;entryY=0.5;entryDx=0;entryDy=0;" parent="1" source="Ne4zD6o56oPT8uHqeSny-2" target="Ne4zD6o56oPT8uHqeSny-24" edge="1">
          <mxGeometry relative="1" as="geometry" />
        </mxCell>
        <mxCell id="Ne4zD6o56oPT8uHqeSny-2" value="" style="rounded=0;whiteSpace=wrap;html=1;rotation=90;" parent="1" vertex="1">
          <mxGeometry x="1210" y="1106" width="94" height="30" as="geometry" />
        </mxCell>
        <mxCell id="Ne4zD6o56oPT8uHqeSny-28" style="edgeStyle=none;rounded=0;orthogonalLoop=1;jettySize=auto;html=1;exitX=0.5;exitY=0;exitDx=0;exitDy=0;entryX=0;entryY=0.5;entryDx=0;entryDy=0;" parent="1" source="Ne4zD6o56oPT8uHqeSny-3" target="Ne4zD6o56oPT8uHqeSny-18" edge="1">
          <mxGeometry relative="1" as="geometry" />
        </mxCell>
        <mxCell id="Ne4zD6o56oPT8uHqeSny-3" value="" style="rounded=0;whiteSpace=wrap;html=1;rotation=90;" parent="1" vertex="1">
          <mxGeometry x="1210" y="332" width="94" height="30" as="geometry" />
        </mxCell>
        <mxCell id="Ne4zD6o56oPT8uHqeSny-27" style="edgeStyle=none;rounded=0;orthogonalLoop=1;jettySize=auto;html=1;exitX=0.5;exitY=0;exitDx=0;exitDy=0;entryX=0;entryY=0.5;entryDx=0;entryDy=0;" parent="1" source="Ne4zD6o56oPT8uHqeSny-4" target="Ne4zD6o56oPT8uHqeSny-20" edge="1">
          <mxGeometry relative="1" as="geometry" />
        </mxCell>
        <mxCell id="Ne4zD6o56oPT8uHqeSny-4" value="" style="rounded=0;whiteSpace=wrap;html=1;rotation=90;" parent="1" vertex="1">
          <mxGeometry x="1210" y="551" width="94" height="30" as="geometry" />
        </mxCell>
        <mxCell id="Ne4zD6o56oPT8uHqeSny-13" value="" style="rounded=0;whiteSpace=wrap;html=1;rotation=90;" parent="1" vertex="1">
          <mxGeometry x="1941.5" y="767" width="95" height="30" as="geometry" />
        </mxCell>
        <mxCell id="Ne4zD6o56oPT8uHqeSny-14" value="" style="rounded=0;whiteSpace=wrap;html=1;rotation=90;" parent="1" vertex="1">
          <mxGeometry x="1941.5" y="1103" width="95" height="30" as="geometry" />
        </mxCell>
        <mxCell id="Ne4zD6o56oPT8uHqeSny-15" value="" style="rounded=0;whiteSpace=wrap;html=1;rotation=90;" parent="1" vertex="1">
          <mxGeometry x="1941.5" y="339" width="95" height="30" as="geometry" />
        </mxCell>
        <mxCell id="Ne4zD6o56oPT8uHqeSny-16" value="" style="rounded=0;whiteSpace=wrap;html=1;rotation=90;" parent="1" vertex="1">
          <mxGeometry x="1941.5" y="558" width="95" height="30" as="geometry" />
        </mxCell>
        <mxCell id="Ne4zD6o56oPT8uHqeSny-17" style="edgeStyle=none;rounded=0;orthogonalLoop=1;jettySize=auto;html=1;exitX=1;exitY=0.5;exitDx=0;exitDy=0;entryX=0.5;entryY=1;entryDx=0;entryDy=0;" parent="1" source="Ne4zD6o56oPT8uHqeSny-18" target="Ne4zD6o56oPT8uHqeSny-15" edge="1">
          <mxGeometry relative="1" as="geometry" />
        </mxCell>
        <mxCell id="Ne4zD6o56oPT8uHqeSny-18" value="" style="ellipse;whiteSpace=wrap;html=1;aspect=fixed;" parent="1" vertex="1">
          <mxGeometry x="1763.5" y="321" width="60" height="60" as="geometry" />
        </mxCell>
        <mxCell id="Ne4zD6o56oPT8uHqeSny-19" style="edgeStyle=none;rounded=0;orthogonalLoop=1;jettySize=auto;html=1;exitX=1;exitY=0.5;exitDx=0;exitDy=0;entryX=0.5;entryY=1;entryDx=0;entryDy=0;" parent="1" source="Ne4zD6o56oPT8uHqeSny-20" target="Ne4zD6o56oPT8uHqeSny-16" edge="1">
          <mxGeometry relative="1" as="geometry" />
        </mxCell>
        <mxCell id="Ne4zD6o56oPT8uHqeSny-21" style="edgeStyle=none;rounded=0;orthogonalLoop=1;jettySize=auto;html=1;exitX=1;exitY=0.5;exitDx=0;exitDy=0;" parent="1" source="Ne4zD6o56oPT8uHqeSny-22" edge="1">
          <mxGeometry relative="1" as="geometry">
            <mxPoint x="1973.5" y="777.3333333333335" as="targetPoint" />
          </mxGeometry>
        </mxCell>
        <mxCell id="Ne4zD6o56oPT8uHqeSny-22" value="" style="ellipse;whiteSpace=wrap;html=1;aspect=fixed;" parent="1" vertex="1">
          <mxGeometry x="1763.5" y="747" width="60" height="60" as="geometry" />
        </mxCell>
        <mxCell id="Ne4zD6o56oPT8uHqeSny-23" style="edgeStyle=none;rounded=0;orthogonalLoop=1;jettySize=auto;html=1;exitX=1;exitY=0.5;exitDx=0;exitDy=0;entryX=0.5;entryY=1;entryDx=0;entryDy=0;" parent="1" source="Ne4zD6o56oPT8uHqeSny-24" target="Ne4zD6o56oPT8uHqeSny-14" edge="1">
          <mxGeometry relative="1" as="geometry" />
        </mxCell>
        <mxCell id="Ne4zD6o56oPT8uHqeSny-39" value="" style="rounded=0;whiteSpace=wrap;html=1;rotation=90;" parent="1" vertex="1">
          <mxGeometry x="1958" y="3160" width="95" height="30" as="geometry" />
        </mxCell>
        <mxCell id="Ne4zD6o56oPT8uHqeSny-40" value="" style="rounded=0;whiteSpace=wrap;html=1;rotation=90;" parent="1" vertex="1">
          <mxGeometry x="1958" y="3519" width="95" height="30" as="geometry" />
        </mxCell>
        <mxCell id="Ne4zD6o56oPT8uHqeSny-41" value="" style="rounded=0;whiteSpace=wrap;html=1;rotation=90;" parent="1" vertex="1">
          <mxGeometry x="1958" y="2705" width="95" height="30" as="geometry" />
        </mxCell>
        <mxCell id="Ne4zD6o56oPT8uHqeSny-42" value="" style="rounded=0;whiteSpace=wrap;html=1;rotation=90;" parent="1" vertex="1">
          <mxGeometry x="1958" y="2924" width="95" height="30" as="geometry" />
        </mxCell>
        <mxCell id="Ne4zD6o56oPT8uHqeSny-43" style="edgeStyle=none;rounded=0;orthogonalLoop=1;jettySize=auto;html=1;exitX=0.5;exitY=0;exitDx=0;exitDy=0;entryX=0;entryY=0.5;entryDx=0;entryDy=0;" parent="1" source="Ne4zD6o56oPT8uHqeSny-44" target="Ne4zD6o56oPT8uHqeSny-56" edge="1">
          <mxGeometry relative="1" as="geometry" />
        </mxCell>
        <mxCell id="Ne4zD6o56oPT8uHqeSny-44" value="" style="rounded=0;whiteSpace=wrap;html=1;rotation=90;" parent="1" vertex="1">
          <mxGeometry x="1560" y="3157" width="94" height="30" as="geometry" />
        </mxCell>
        <mxCell id="Ne4zD6o56oPT8uHqeSny-45" style="edgeStyle=none;rounded=0;orthogonalLoop=1;jettySize=auto;html=1;exitX=0.5;exitY=0;exitDx=0;exitDy=0;entryX=0;entryY=0.5;entryDx=0;entryDy=0;" parent="1" source="Ne4zD6o56oPT8uHqeSny-46" target="Ne4zD6o56oPT8uHqeSny-58" edge="1">
          <mxGeometry relative="1" as="geometry" />
        </mxCell>
        <mxCell id="Ne4zD6o56oPT8uHqeSny-46" value="" style="rounded=0;whiteSpace=wrap;html=1;rotation=90;" parent="1" vertex="1">
          <mxGeometry x="1560" y="3516" width="94" height="30" as="geometry" />
        </mxCell>
        <mxCell id="Ne4zD6o56oPT8uHqeSny-47" style="edgeStyle=none;rounded=0;orthogonalLoop=1;jettySize=auto;html=1;exitX=0.5;exitY=0;exitDx=0;exitDy=0;entryX=0;entryY=0.5;entryDx=0;entryDy=0;" parent="1" source="Ne4zD6o56oPT8uHqeSny-48" target="Ne4zD6o56oPT8uHqeSny-52" edge="1">
          <mxGeometry relative="1" as="geometry" />
        </mxCell>
        <mxCell id="Ne4zD6o56oPT8uHqeSny-48" value="" style="rounded=0;whiteSpace=wrap;html=1;rotation=90;" parent="1" vertex="1">
          <mxGeometry x="1560" y="2702" width="94" height="30" as="geometry" />
        </mxCell>
        <mxCell id="Ne4zD6o56oPT8uHqeSny-49" style="edgeStyle=none;rounded=0;orthogonalLoop=1;jettySize=auto;html=1;exitX=0.5;exitY=0;exitDx=0;exitDy=0;entryX=0;entryY=0.5;entryDx=0;entryDy=0;" parent="1" source="Ne4zD6o56oPT8uHqeSny-50" target="Ne4zD6o56oPT8uHqeSny-54" edge="1">
          <mxGeometry relative="1" as="geometry" />
        </mxCell>
        <mxCell id="Ne4zD6o56oPT8uHqeSny-51" style="edgeStyle=none;rounded=0;orthogonalLoop=1;jettySize=auto;html=1;exitX=1;exitY=0.5;exitDx=0;exitDy=0;entryX=0.5;entryY=1;entryDx=0;entryDy=0;" parent="1" source="Ne4zD6o56oPT8uHqeSny-52" target="Ne4zD6o56oPT8uHqeSny-41" edge="1">
          <mxGeometry relative="1" as="geometry" />
        </mxCell>
        <mxCell id="Ne4zD6o56oPT8uHqeSny-52" value="" style="ellipse;whiteSpace=wrap;html=1;aspect=fixed;" parent="1" vertex="1">
          <mxGeometry x="1780" y="2687" width="60" height="60" as="geometry" />
        </mxCell>
        <mxCell id="Ne4zD6o56oPT8uHqeSny-53" style="edgeStyle=none;rounded=0;orthogonalLoop=1;jettySize=auto;html=1;exitX=1;exitY=0.5;exitDx=0;exitDy=0;entryX=0.5;entryY=1;entryDx=0;entryDy=0;" parent="1" source="Ne4zD6o56oPT8uHqeSny-54" target="Ne4zD6o56oPT8uHqeSny-42" edge="1">
          <mxGeometry relative="1" as="geometry" />
        </mxCell>
        <mxCell id="Ne4zD6o56oPT8uHqeSny-54" value="" style="ellipse;whiteSpace=wrap;html=1;aspect=fixed;" parent="1" vertex="1">
          <mxGeometry x="1780" y="2909" width="60" height="60" as="geometry" />
        </mxCell>
        <mxCell id="Ne4zD6o56oPT8uHqeSny-55" style="edgeStyle=none;rounded=0;orthogonalLoop=1;jettySize=auto;html=1;exitX=1;exitY=0.5;exitDx=0;exitDy=0;" parent="1" source="Ne4zD6o56oPT8uHqeSny-56" edge="1">
          <mxGeometry relative="1" as="geometry">
            <mxPoint x="1990" y="3170.3333333333335" as="targetPoint" />
          </mxGeometry>
        </mxCell>
        <mxCell id="Ne4zD6o56oPT8uHqeSny-57" style="edgeStyle=none;rounded=0;orthogonalLoop=1;jettySize=auto;html=1;exitX=1;exitY=0.5;exitDx=0;exitDy=0;entryX=0.5;entryY=1;entryDx=0;entryDy=0;" parent="1" source="Ne4zD6o56oPT8uHqeSny-58" target="Ne4zD6o56oPT8uHqeSny-40" edge="1">
          <mxGeometry relative="1" as="geometry" />
        </mxCell>
        <mxCell id="Ne4zD6o56oPT8uHqeSny-58" value="" style="ellipse;whiteSpace=wrap;html=1;aspect=fixed;" parent="1" vertex="1">
          <mxGeometry x="1780" y="3504" width="60" height="60" as="geometry" />
        </mxCell>
        <mxCell id="Ne4zD6o56oPT8uHqeSny-67" value="&lt;font style=&quot;font-size: 14px;&quot;&gt;elektromobil pokračuje v nabíjení nad 20 % baterky&lt;/font&gt;" style="text;html=1;align=center;verticalAlign=middle;whiteSpace=wrap;rounded=0;" parent="1" vertex="1">
          <mxGeometry x="2730" y="-620" width="100" height="140" as="geometry" />
        </mxCell>
        <mxCell id="6HQXh_pFPckdDbp-CF7b-1" style="edgeStyle=orthogonalEdgeStyle;rounded=0;orthogonalLoop=1;jettySize=auto;html=1;exitX=0.5;exitY=0;exitDx=0;exitDy=0;" parent="1" source="6HQXh_pFPckdDbp-CF7b-2" target="6HQXh_pFPckdDbp-CF7b-4" edge="1">
          <mxGeometry relative="1" as="geometry" />
        </mxCell>
        <mxCell id="6HQXh_pFPckdDbp-CF7b-2" value="" style="rounded=0;whiteSpace=wrap;html=1;rotation=90;" parent="1" vertex="1">
          <mxGeometry x="1958" y="-2075" width="95" height="30" as="geometry" />
        </mxCell>
        <mxCell id="6HQXh_pFPckdDbp-CF7b-3" style="edgeStyle=orthogonalEdgeStyle;rounded=0;orthogonalLoop=1;jettySize=auto;html=1;exitX=1;exitY=0.5;exitDx=0;exitDy=0;" parent="1" source="6HQXh_pFPckdDbp-CF7b-4" target="6HQXh_pFPckdDbp-CF7b-5" edge="1">
          <mxGeometry relative="1" as="geometry" />
        </mxCell>
        <mxCell id="6HQXh_pFPckdDbp-CF7b-4" value="" style="ellipse;whiteSpace=wrap;html=1;aspect=fixed;" parent="1" vertex="1">
          <mxGeometry x="2108" y="-2090" width="60" height="60" as="geometry" />
        </mxCell>
        <mxCell id="6HQXh_pFPckdDbp-CF7b-56" style="edgeStyle=orthogonalEdgeStyle;rounded=0;orthogonalLoop=1;jettySize=auto;html=1;exitX=0.5;exitY=0;exitDx=0;exitDy=0;entryX=1;entryY=0;entryDx=0;entryDy=0;" parent="1" source="6HQXh_pFPckdDbp-CF7b-5" target="6HQXh_pFPckdDbp-CF7b-34" edge="1">
          <mxGeometry relative="1" as="geometry">
            <Array as="points">
              <mxPoint x="2710" y="-2060" />
              <mxPoint x="2710" y="30" />
              <mxPoint x="2161" y="30" />
            </Array>
          </mxGeometry>
        </mxCell>
        <mxCell id="6HQXh_pFPckdDbp-CF7b-5" value="" style="rounded=0;whiteSpace=wrap;html=1;rotation=90;" parent="1" vertex="1">
          <mxGeometry x="2209" y="-2075" width="95" height="30" as="geometry" />
        </mxCell>
        <mxCell id="6HQXh_pFPckdDbp-CF7b-6" value="nabíjení" style="text;html=1;align=center;verticalAlign=middle;whiteSpace=wrap;rounded=0;" parent="1" vertex="1">
          <mxGeometry x="2108" y="-2120" width="60" height="30" as="geometry" />
        </mxCell>
        <mxCell id="6HQXh_pFPckdDbp-CF7b-8" style="edgeStyle=none;rounded=0;orthogonalLoop=1;jettySize=auto;html=1;exitX=0.5;exitY=0;exitDx=0;exitDy=0;entryX=0;entryY=0.5;entryDx=0;entryDy=0;" parent="1" source="6HQXh_pFPckdDbp-CF7b-9" target="6HQXh_pFPckdDbp-CF7b-11" edge="1">
          <mxGeometry relative="1" as="geometry" />
        </mxCell>
        <mxCell id="6HQXh_pFPckdDbp-CF7b-9" value="" style="rounded=0;whiteSpace=wrap;html=1;rotation=90;" parent="1" vertex="1">
          <mxGeometry x="1560" y="-2078" width="94" height="30" as="geometry" />
        </mxCell>
        <mxCell id="6HQXh_pFPckdDbp-CF7b-10" style="edgeStyle=none;rounded=0;orthogonalLoop=1;jettySize=auto;html=1;exitX=1;exitY=0.5;exitDx=0;exitDy=0;entryX=0.5;entryY=1;entryDx=0;entryDy=0;" parent="1" source="6HQXh_pFPckdDbp-CF7b-11" target="6HQXh_pFPckdDbp-CF7b-2" edge="1">
          <mxGeometry relative="1" as="geometry" />
        </mxCell>
        <mxCell id="6HQXh_pFPckdDbp-CF7b-11" value="" style="ellipse;whiteSpace=wrap;html=1;aspect=fixed;" parent="1" vertex="1">
          <mxGeometry x="1780" y="-2093" width="60" height="60" as="geometry" />
        </mxCell>
        <mxCell id="6HQXh_pFPckdDbp-CF7b-18" style="edgeStyle=none;rounded=0;orthogonalLoop=1;jettySize=auto;html=1;exitX=1;exitY=0.5;exitDx=0;exitDy=0;entryX=0.75;entryY=1;entryDx=0;entryDy=0;fillColor=#fad7ac;strokeColor=#b46504;" parent="1" source="6HQXh_pFPckdDbp-CF7b-14" target="6HQXh_pFPckdDbp-CF7b-2" edge="1">
          <mxGeometry relative="1" as="geometry" />
        </mxCell>
        <mxCell id="6HQXh_pFPckdDbp-CF7b-58" style="edgeStyle=none;rounded=0;orthogonalLoop=1;jettySize=auto;html=1;exitX=1;exitY=0.5;exitDx=0;exitDy=0;entryX=0.25;entryY=1;entryDx=0;entryDy=0;fillColor=#fad7ac;strokeColor=#b46504;" parent="1" source="6HQXh_pFPckdDbp-CF7b-14" target="6HQXh_pFPckdDbp-CF7b-40" edge="1">
          <mxGeometry relative="1" as="geometry" />
        </mxCell>
        <mxCell id="6HQXh_pFPckdDbp-CF7b-96" style="edgeStyle=none;rounded=0;orthogonalLoop=1;jettySize=auto;html=1;exitX=1;exitY=0.5;exitDx=0;exitDy=0;entryX=0.25;entryY=1;entryDx=0;entryDy=0;fillColor=#fad7ac;strokeColor=#b46504;" parent="1" source="6HQXh_pFPckdDbp-CF7b-14" target="6HQXh_pFPckdDbp-CF7b-72" edge="1">
          <mxGeometry relative="1" as="geometry" />
        </mxCell>
        <mxCell id="6HQXh_pFPckdDbp-CF7b-14" value="" style="ellipse;whiteSpace=wrap;html=1;aspect=fixed;fillColor=#fad7ac;strokeColor=#b46504;" parent="1" vertex="1">
          <mxGeometry x="1155" y="-960" width="118" height="113" as="geometry" />
        </mxCell>
        <mxCell id="6HQXh_pFPckdDbp-CF7b-15" value="&lt;font style=&quot;font-size: 35px;&quot;&gt;6&lt;/font&gt;" style="text;html=1;align=center;verticalAlign=middle;whiteSpace=wrap;rounded=0;fillColor=#fad7ac;strokeColor=#b46504;" parent="1" vertex="1">
          <mxGeometry x="1183" y="-915" width="60" height="25" as="geometry" />
        </mxCell>
        <mxCell id="6HQXh_pFPckdDbp-CF7b-16" value="Sklad&amp;nbsp;&lt;div&gt;11 kW&lt;/div&gt;&lt;div&gt;nabíječek&lt;/div&gt;" style="text;html=1;align=center;verticalAlign=middle;whiteSpace=wrap;rounded=0;fillColor=#fad7ac;strokeColor=#b46504;" parent="1" vertex="1">
          <mxGeometry x="1178" y="-842" width="72" height="47" as="geometry" />
        </mxCell>
        <mxCell id="DUZmrAGYnQG1LHZdkdyr-8" value="" style="ellipse;whiteSpace=wrap;html=1;aspect=fixed;" parent="1" vertex="1">
          <mxGeometry x="1780" y="-1883" width="60" height="60" as="geometry" />
        </mxCell>
        <mxCell id="DUZmrAGYnQG1LHZdkdyr-6" value="" style="rounded=0;whiteSpace=wrap;html=1;rotation=90;" parent="1" vertex="1">
          <mxGeometry x="1560" y="-1649" width="94" height="30" as="geometry" />
        </mxCell>
        <mxCell id="DUZmrAGYnQG1LHZdkdyr-17" style="edgeStyle=none;rounded=0;orthogonalLoop=1;jettySize=auto;html=1;exitX=0.5;exitY=0;exitDx=0;exitDy=0;entryX=0;entryY=0.5;entryDx=0;entryDy=0;" parent="1" source="DUZmrAGYnQG1LHZdkdyr-6" target="DUZmrAGYnQG1LHZdkdyr-9" edge="1">
          <mxGeometry relative="1" as="geometry" />
        </mxCell>
        <mxCell id="DUZmrAGYnQG1LHZdkdyr-14" style="edgeStyle=none;rounded=0;orthogonalLoop=1;jettySize=auto;html=1;exitX=1;exitY=0.5;exitDx=0;exitDy=0;entryX=0.5;entryY=1;entryDx=0;entryDy=0;" parent="1" source="hVdwgTMXwn0eozp2v96i-101" target="DUZmrAGYnQG1LHZdkdyr-3" edge="1">
          <mxGeometry relative="1" as="geometry" />
        </mxCell>
        <mxCell id="DUZmrAGYnQG1LHZdkdyr-15" style="edgeStyle=none;rounded=0;orthogonalLoop=1;jettySize=auto;html=1;exitX=1;exitY=0.5;exitDx=0;exitDy=0;entryX=0.5;entryY=1;entryDx=0;entryDy=0;" parent="1" source="hVdwgTMXwn0eozp2v96i-101" target="DUZmrAGYnQG1LHZdkdyr-4" edge="1">
          <mxGeometry relative="1" as="geometry" />
        </mxCell>
        <mxCell id="6HQXh_pFPckdDbp-CF7b-19" style="edgeStyle=orthogonalEdgeStyle;rounded=0;orthogonalLoop=1;jettySize=auto;html=1;exitX=0.5;exitY=0;exitDx=0;exitDy=0;" parent="1" source="6HQXh_pFPckdDbp-CF7b-20" target="6HQXh_pFPckdDbp-CF7b-22" edge="1">
          <mxGeometry relative="1" as="geometry" />
        </mxCell>
        <mxCell id="6HQXh_pFPckdDbp-CF7b-20" value="" style="rounded=0;whiteSpace=wrap;html=1;rotation=90;" parent="1" vertex="1">
          <mxGeometry x="1960" y="-935" width="95" height="30" as="geometry" />
        </mxCell>
        <mxCell id="6HQXh_pFPckdDbp-CF7b-21" style="edgeStyle=orthogonalEdgeStyle;rounded=0;orthogonalLoop=1;jettySize=auto;html=1;exitX=1;exitY=0.5;exitDx=0;exitDy=0;entryX=0.5;entryY=1;entryDx=0;entryDy=0;" parent="1" source="6HQXh_pFPckdDbp-CF7b-22" target="6HQXh_pFPckdDbp-CF7b-23" edge="1">
          <mxGeometry relative="1" as="geometry" />
        </mxCell>
        <mxCell id="6HQXh_pFPckdDbp-CF7b-22" value="" style="ellipse;whiteSpace=wrap;html=1;aspect=fixed;" parent="1" vertex="1">
          <mxGeometry x="2110" y="-950" width="60" height="60" as="geometry" />
        </mxCell>
        <mxCell id="6HQXh_pFPckdDbp-CF7b-57" style="edgeStyle=orthogonalEdgeStyle;rounded=0;orthogonalLoop=1;jettySize=auto;html=1;exitX=0.5;exitY=0;exitDx=0;exitDy=0;entryX=0;entryY=0;entryDx=0;entryDy=0;" parent="1" source="6HQXh_pFPckdDbp-CF7b-23" target="6HQXh_pFPckdDbp-CF7b-46" edge="1">
          <mxGeometry relative="1" as="geometry">
            <mxPoint x="2060" y="1370" as="targetPoint" />
            <Array as="points">
              <mxPoint x="2450" y="-920" />
              <mxPoint x="2450" y="-180" />
              <mxPoint x="2040" y="-180" />
              <mxPoint x="2040" y="1287" />
            </Array>
          </mxGeometry>
        </mxCell>
        <mxCell id="6HQXh_pFPckdDbp-CF7b-23" value="" style="rounded=0;whiteSpace=wrap;html=1;rotation=90;" parent="1" vertex="1">
          <mxGeometry x="2211" y="-935" width="95" height="30" as="geometry" />
        </mxCell>
        <mxCell id="6HQXh_pFPckdDbp-CF7b-24" value="nabíjení" style="text;html=1;align=center;verticalAlign=middle;whiteSpace=wrap;rounded=0;" parent="1" vertex="1">
          <mxGeometry x="2110" y="-980" width="60" height="30" as="geometry" />
        </mxCell>
        <mxCell id="6HQXh_pFPckdDbp-CF7b-26" style="edgeStyle=none;rounded=0;orthogonalLoop=1;jettySize=auto;html=1;exitX=0.5;exitY=0;exitDx=0;exitDy=0;entryX=0;entryY=0.5;entryDx=0;entryDy=0;" parent="1" source="6HQXh_pFPckdDbp-CF7b-27" target="6HQXh_pFPckdDbp-CF7b-29" edge="1">
          <mxGeometry relative="1" as="geometry" />
        </mxCell>
        <mxCell id="6HQXh_pFPckdDbp-CF7b-28" style="edgeStyle=none;rounded=0;orthogonalLoop=1;jettySize=auto;html=1;exitX=1;exitY=0.5;exitDx=0;exitDy=0;entryX=0.5;entryY=1;entryDx=0;entryDy=0;" parent="1" source="6HQXh_pFPckdDbp-CF7b-29" target="6HQXh_pFPckdDbp-CF7b-20" edge="1">
          <mxGeometry relative="1" as="geometry" />
        </mxCell>
        <mxCell id="6HQXh_pFPckdDbp-CF7b-29" value="" style="ellipse;whiteSpace=wrap;html=1;aspect=fixed;" parent="1" vertex="1">
          <mxGeometry x="1782" y="-950" width="60" height="60" as="geometry" />
        </mxCell>
        <mxCell id="6HQXh_pFPckdDbp-CF7b-31" style="edgeStyle=orthogonalEdgeStyle;rounded=0;orthogonalLoop=1;jettySize=auto;html=1;exitX=0.5;exitY=0;exitDx=0;exitDy=0;" parent="1" source="6HQXh_pFPckdDbp-CF7b-40" target="6HQXh_pFPckdDbp-CF7b-34" edge="1">
          <mxGeometry relative="1" as="geometry">
            <mxPoint x="2022.5" y="154" as="sourcePoint" />
          </mxGeometry>
        </mxCell>
        <mxCell id="6HQXh_pFPckdDbp-CF7b-59" style="edgeStyle=none;rounded=0;orthogonalLoop=1;jettySize=auto;html=1;exitX=0;exitY=1;exitDx=0;exitDy=0;fillColor=#fad7ac;strokeColor=#b46504;strokeWidth=2;" parent="1" source="6HQXh_pFPckdDbp-CF7b-33" target="6HQXh_pFPckdDbp-CF7b-14" edge="1">
          <mxGeometry relative="1" as="geometry" />
        </mxCell>
        <mxCell id="6HQXh_pFPckdDbp-CF7b-95" style="edgeStyle=none;rounded=0;orthogonalLoop=1;jettySize=auto;html=1;exitX=0.5;exitY=0;exitDx=0;exitDy=0;entryX=0;entryY=0.5;entryDx=0;entryDy=0;" parent="1" source="6HQXh_pFPckdDbp-CF7b-33" target="hVdwgTMXwn0eozp2v96i-219" edge="1">
          <mxGeometry relative="1" as="geometry" />
        </mxCell>
        <mxCell id="6HQXh_pFPckdDbp-CF7b-33" value="" style="rounded=0;whiteSpace=wrap;html=1;rotation=90;" parent="1" vertex="1">
          <mxGeometry x="2211" y="139" width="95" height="30" as="geometry" />
        </mxCell>
        <mxCell id="6HQXh_pFPckdDbp-CF7b-34" value="" style="ellipse;whiteSpace=wrap;html=1;aspect=fixed;" parent="1" vertex="1">
          <mxGeometry x="2110" y="124" width="60" height="60" as="geometry" />
        </mxCell>
        <mxCell id="6HQXh_pFPckdDbp-CF7b-35" value="nabíjení" style="text;html=1;align=center;verticalAlign=middle;whiteSpace=wrap;rounded=0;" parent="1" vertex="1">
          <mxGeometry x="2151" y="184" width="60" height="30" as="geometry" />
        </mxCell>
        <mxCell id="6HQXh_pFPckdDbp-CF7b-37" style="edgeStyle=none;rounded=0;orthogonalLoop=1;jettySize=auto;html=1;exitX=0.5;exitY=0;exitDx=0;exitDy=0;entryX=0;entryY=0.5;entryDx=0;entryDy=0;" parent="1" source="6HQXh_pFPckdDbp-CF7b-38" target="6HQXh_pFPckdDbp-CF7b-42" edge="1">
          <mxGeometry relative="1" as="geometry" />
        </mxCell>
        <mxCell id="6HQXh_pFPckdDbp-CF7b-38" value="" style="rounded=0;whiteSpace=wrap;html=1;rotation=90;" parent="1" vertex="1">
          <mxGeometry x="1210" y="132" width="94" height="30" as="geometry" />
        </mxCell>
        <mxCell id="6HQXh_pFPckdDbp-CF7b-40" value="" style="rounded=0;whiteSpace=wrap;html=1;rotation=90;" parent="1" vertex="1">
          <mxGeometry x="1941.5" y="139" width="95" height="30" as="geometry" />
        </mxCell>
        <mxCell id="6HQXh_pFPckdDbp-CF7b-41" style="edgeStyle=none;rounded=0;orthogonalLoop=1;jettySize=auto;html=1;exitX=1;exitY=0.5;exitDx=0;exitDy=0;entryX=0.5;entryY=1;entryDx=0;entryDy=0;" parent="1" source="6HQXh_pFPckdDbp-CF7b-42" target="6HQXh_pFPckdDbp-CF7b-40" edge="1">
          <mxGeometry relative="1" as="geometry" />
        </mxCell>
        <mxCell id="6HQXh_pFPckdDbp-CF7b-44" style="edgeStyle=orthogonalEdgeStyle;rounded=0;orthogonalLoop=1;jettySize=auto;html=1;exitX=0.5;exitY=0;exitDx=0;exitDy=0;" parent="1" source="6HQXh_pFPckdDbp-CF7b-52" target="6HQXh_pFPckdDbp-CF7b-46" edge="1">
          <mxGeometry relative="1" as="geometry">
            <mxPoint x="2022.5" y="1308" as="sourcePoint" />
          </mxGeometry>
        </mxCell>
        <mxCell id="6HQXh_pFPckdDbp-CF7b-45" style="edgeStyle=orthogonalEdgeStyle;rounded=0;orthogonalLoop=1;jettySize=auto;html=1;exitX=1;exitY=0.5;exitDx=0;exitDy=0;entryX=0.5;entryY=1;entryDx=0;entryDy=0;" parent="1" source="6HQXh_pFPckdDbp-CF7b-46" target="6HQXh_pFPckdDbp-CF7b-47" edge="1">
          <mxGeometry relative="1" as="geometry" />
        </mxCell>
        <mxCell id="6HQXh_pFPckdDbp-CF7b-46" value="" style="ellipse;whiteSpace=wrap;html=1;aspect=fixed;" parent="1" vertex="1">
          <mxGeometry x="2110" y="1278" width="60" height="60" as="geometry" />
        </mxCell>
        <mxCell id="6HQXh_pFPckdDbp-CF7b-93" style="edgeStyle=none;rounded=0;orthogonalLoop=1;jettySize=auto;html=1;exitX=0.5;exitY=0;exitDx=0;exitDy=0;entryX=0;entryY=0.5;entryDx=0;entryDy=0;" parent="1" source="6HQXh_pFPckdDbp-CF7b-47" target="hVdwgTMXwn0eozp2v96i-219" edge="1">
          <mxGeometry relative="1" as="geometry" />
        </mxCell>
        <mxCell id="6HQXh_pFPckdDbp-CF7b-101" style="edgeStyle=none;rounded=0;orthogonalLoop=1;jettySize=auto;html=1;exitX=0.75;exitY=1;exitDx=0;exitDy=0;entryX=1;entryY=0;entryDx=0;entryDy=0;fillColor=#b0e3e6;strokeColor=#0e8088;strokeWidth=2;" parent="1" source="6HQXh_pFPckdDbp-CF7b-47" target="6HQXh_pFPckdDbp-CF7b-63" edge="1">
          <mxGeometry relative="1" as="geometry" />
        </mxCell>
        <mxCell id="6HQXh_pFPckdDbp-CF7b-47" value="" style="rounded=0;whiteSpace=wrap;html=1;rotation=90;" parent="1" vertex="1">
          <mxGeometry x="2211" y="1293" width="95" height="30" as="geometry" />
        </mxCell>
        <mxCell id="6HQXh_pFPckdDbp-CF7b-48" value="nabíjení" style="text;html=1;align=center;verticalAlign=middle;whiteSpace=wrap;rounded=0;" parent="1" vertex="1">
          <mxGeometry x="2130" y="1338" width="60" height="30" as="geometry" />
        </mxCell>
        <mxCell id="6HQXh_pFPckdDbp-CF7b-50" style="edgeStyle=none;rounded=0;orthogonalLoop=1;jettySize=auto;html=1;exitX=0.5;exitY=0;exitDx=0;exitDy=0;entryX=0;entryY=0.5;entryDx=0;entryDy=0;" parent="1" source="6HQXh_pFPckdDbp-CF7b-51" target="6HQXh_pFPckdDbp-CF7b-54" edge="1">
          <mxGeometry relative="1" as="geometry" />
        </mxCell>
        <mxCell id="6HQXh_pFPckdDbp-CF7b-51" value="" style="rounded=0;whiteSpace=wrap;html=1;rotation=90;" parent="1" vertex="1">
          <mxGeometry x="1210" y="1296" width="94" height="30" as="geometry" />
        </mxCell>
        <mxCell id="6HQXh_pFPckdDbp-CF7b-52" value="" style="rounded=0;whiteSpace=wrap;html=1;rotation=90;" parent="1" vertex="1">
          <mxGeometry x="1941.5" y="1293" width="95" height="30" as="geometry" />
        </mxCell>
        <mxCell id="6HQXh_pFPckdDbp-CF7b-53" style="edgeStyle=none;rounded=0;orthogonalLoop=1;jettySize=auto;html=1;exitX=1;exitY=0.5;exitDx=0;exitDy=0;entryX=0.5;entryY=1;entryDx=0;entryDy=0;" parent="1" source="6HQXh_pFPckdDbp-CF7b-54" target="6HQXh_pFPckdDbp-CF7b-52" edge="1">
          <mxGeometry relative="1" as="geometry" />
        </mxCell>
        <mxCell id="6HQXh_pFPckdDbp-CF7b-54" value="" style="ellipse;whiteSpace=wrap;html=1;aspect=fixed;" parent="1" vertex="1">
          <mxGeometry x="1763.5" y="1278" width="60" height="60" as="geometry" />
        </mxCell>
        <mxCell id="6HQXh_pFPckdDbp-CF7b-98" style="edgeStyle=none;rounded=0;orthogonalLoop=1;jettySize=auto;html=1;exitX=1;exitY=0.5;exitDx=0;exitDy=0;entryX=0.75;entryY=1;entryDx=0;entryDy=0;fillColor=#b0e3e6;strokeColor=#0e8088;" parent="1" source="6HQXh_pFPckdDbp-CF7b-63" target="6HQXh_pFPckdDbp-CF7b-20" edge="1">
          <mxGeometry relative="1" as="geometry" />
        </mxCell>
        <mxCell id="6HQXh_pFPckdDbp-CF7b-99" style="edgeStyle=none;rounded=0;orthogonalLoop=1;jettySize=auto;html=1;exitX=1;exitY=0.5;exitDx=0;exitDy=0;entryX=0.75;entryY=1;entryDx=0;entryDy=0;fillColor=#b0e3e6;strokeColor=#0e8088;" parent="1" source="6HQXh_pFPckdDbp-CF7b-63" target="6HQXh_pFPckdDbp-CF7b-52" edge="1">
          <mxGeometry relative="1" as="geometry" />
        </mxCell>
        <mxCell id="6HQXh_pFPckdDbp-CF7b-100" style="edgeStyle=none;rounded=0;orthogonalLoop=1;jettySize=auto;html=1;exitX=1;exitY=0.5;exitDx=0;exitDy=0;entryX=0.25;entryY=1;entryDx=0;entryDy=0;fillColor=#b0e3e6;strokeColor=#0e8088;" parent="1" source="6HQXh_pFPckdDbp-CF7b-63" target="6HQXh_pFPckdDbp-CF7b-84" edge="1">
          <mxGeometry relative="1" as="geometry" />
        </mxCell>
        <mxCell id="6HQXh_pFPckdDbp-CF7b-63" value="" style="ellipse;whiteSpace=wrap;html=1;aspect=fixed;fillColor=#b0e3e6;strokeColor=#0e8088;" parent="1" vertex="1">
          <mxGeometry x="1156.5" y="2360" width="118" height="118" as="geometry" />
        </mxCell>
        <mxCell id="6HQXh_pFPckdDbp-CF7b-64" value="&lt;span style=&quot;font-size: 35px;&quot;&gt;13&lt;/span&gt;" style="text;html=1;align=center;verticalAlign=middle;whiteSpace=wrap;rounded=0;fillColor=#b0e3e6;strokeColor=#0e8088;" parent="1" vertex="1">
          <mxGeometry x="1184.5" y="2405" width="60" height="30" as="geometry" />
        </mxCell>
        <mxCell id="6HQXh_pFPckdDbp-CF7b-65" value="Sklad&amp;nbsp;&lt;div&gt;150 kW&lt;br&gt;&lt;div&gt;nabíječek&lt;/div&gt;&lt;/div&gt;" style="text;html=1;align=center;verticalAlign=middle;whiteSpace=wrap;rounded=0;fillColor=#b0e3e6;strokeColor=#0e8088;" parent="1" vertex="1">
          <mxGeometry x="1179.5" y="2478" width="72" height="59" as="geometry" />
        </mxCell>
        <mxCell id="6HQXh_pFPckdDbp-CF7b-66" style="edgeStyle=orthogonalEdgeStyle;rounded=0;orthogonalLoop=1;jettySize=auto;html=1;exitX=0.5;exitY=0;exitDx=0;exitDy=0;" parent="1" source="6HQXh_pFPckdDbp-CF7b-72" target="6HQXh_pFPckdDbp-CF7b-71" edge="1">
          <mxGeometry relative="1" as="geometry">
            <mxPoint x="2032.5" y="2519" as="sourcePoint" />
          </mxGeometry>
        </mxCell>
        <mxCell id="6HQXh_pFPckdDbp-CF7b-67" style="edgeStyle=orthogonalEdgeStyle;rounded=0;orthogonalLoop=1;jettySize=auto;html=1;exitX=1;exitY=0.5;exitDx=0;exitDy=0;" parent="1" source="6HQXh_pFPckdDbp-CF7b-71" target="6HQXh_pFPckdDbp-CF7b-68" edge="1">
          <mxGeometry relative="1" as="geometry" />
        </mxCell>
        <mxCell id="6HQXh_pFPckdDbp-CF7b-94" style="edgeStyle=none;rounded=0;orthogonalLoop=1;jettySize=auto;html=1;exitX=0.5;exitY=0;exitDx=0;exitDy=0;entryX=0;entryY=0.5;entryDx=0;entryDy=0;" parent="1" source="6HQXh_pFPckdDbp-CF7b-68" target="hVdwgTMXwn0eozp2v96i-219" edge="1">
          <mxGeometry relative="1" as="geometry">
            <mxPoint x="2570" y="1760" as="targetPoint" />
          </mxGeometry>
        </mxCell>
        <mxCell id="6HQXh_pFPckdDbp-CF7b-68" value="" style="rounded=0;whiteSpace=wrap;html=1;rotation=90;" parent="1" vertex="1">
          <mxGeometry x="2221" y="2504" width="95" height="30" as="geometry" />
        </mxCell>
        <mxCell id="6HQXh_pFPckdDbp-CF7b-69" value="nabíjení" style="text;html=1;align=center;verticalAlign=middle;whiteSpace=wrap;rounded=0;" parent="1" vertex="1">
          <mxGeometry x="2120" y="2459" width="60" height="30" as="geometry" />
        </mxCell>
        <mxCell id="6HQXh_pFPckdDbp-CF7b-71" value="" style="ellipse;whiteSpace=wrap;html=1;aspect=fixed;" parent="1" vertex="1">
          <mxGeometry x="2120" y="2489" width="60" height="60" as="geometry" />
        </mxCell>
        <mxCell id="6HQXh_pFPckdDbp-CF7b-72" value="" style="rounded=0;whiteSpace=wrap;html=1;rotation=90;" parent="1" vertex="1">
          <mxGeometry x="1958" y="2505" width="95" height="30" as="geometry" />
        </mxCell>
        <mxCell id="6HQXh_pFPckdDbp-CF7b-73" style="edgeStyle=none;rounded=0;orthogonalLoop=1;jettySize=auto;html=1;exitX=0.5;exitY=0;exitDx=0;exitDy=0;entryX=0;entryY=0.5;entryDx=0;entryDy=0;" parent="1" source="6HQXh_pFPckdDbp-CF7b-74" target="6HQXh_pFPckdDbp-CF7b-76" edge="1">
          <mxGeometry relative="1" as="geometry" />
        </mxCell>
        <mxCell id="6HQXh_pFPckdDbp-CF7b-74" value="" style="rounded=0;whiteSpace=wrap;html=1;rotation=90;" parent="1" vertex="1">
          <mxGeometry x="1560" y="2502" width="94" height="30" as="geometry" />
        </mxCell>
        <mxCell id="6HQXh_pFPckdDbp-CF7b-75" style="edgeStyle=none;rounded=0;orthogonalLoop=1;jettySize=auto;html=1;exitX=1;exitY=0.5;exitDx=0;exitDy=0;entryX=0.5;entryY=1;entryDx=0;entryDy=0;" parent="1" source="6HQXh_pFPckdDbp-CF7b-76" target="6HQXh_pFPckdDbp-CF7b-72" edge="1">
          <mxGeometry relative="1" as="geometry" />
        </mxCell>
        <mxCell id="6HQXh_pFPckdDbp-CF7b-76" value="" style="ellipse;whiteSpace=wrap;html=1;aspect=fixed;" parent="1" vertex="1">
          <mxGeometry x="1780" y="2487" width="60" height="60" as="geometry" />
        </mxCell>
        <mxCell id="6HQXh_pFPckdDbp-CF7b-78" style="edgeStyle=orthogonalEdgeStyle;rounded=0;orthogonalLoop=1;jettySize=auto;html=1;exitX=0.5;exitY=0;exitDx=0;exitDy=0;" parent="1" source="6HQXh_pFPckdDbp-CF7b-84" target="6HQXh_pFPckdDbp-CF7b-80" edge="1">
          <mxGeometry relative="1" as="geometry">
            <mxPoint x="2032.5" y="3733" as="sourcePoint" />
          </mxGeometry>
        </mxCell>
        <mxCell id="6HQXh_pFPckdDbp-CF7b-79" style="edgeStyle=orthogonalEdgeStyle;rounded=0;orthogonalLoop=1;jettySize=auto;html=1;exitX=1;exitY=0.5;exitDx=0;exitDy=0;entryX=0.5;entryY=1;entryDx=0;entryDy=0;" parent="1" source="6HQXh_pFPckdDbp-CF7b-80" target="6HQXh_pFPckdDbp-CF7b-81" edge="1">
          <mxGeometry relative="1" as="geometry" />
        </mxCell>
        <mxCell id="6HQXh_pFPckdDbp-CF7b-80" value="" style="ellipse;whiteSpace=wrap;html=1;aspect=fixed;" parent="1" vertex="1">
          <mxGeometry x="2120" y="3703" width="60" height="60" as="geometry" />
        </mxCell>
        <mxCell id="6HQXh_pFPckdDbp-CF7b-92" style="edgeStyle=none;rounded=0;orthogonalLoop=1;jettySize=auto;html=1;exitX=0.5;exitY=0;exitDx=0;exitDy=0;entryX=0;entryY=0.5;entryDx=0;entryDy=0;" parent="1" source="6HQXh_pFPckdDbp-CF7b-81" target="hVdwgTMXwn0eozp2v96i-219" edge="1">
          <mxGeometry relative="1" as="geometry" />
        </mxCell>
        <mxCell id="6HQXh_pFPckdDbp-CF7b-81" value="" style="rounded=0;whiteSpace=wrap;html=1;rotation=90;" parent="1" vertex="1">
          <mxGeometry x="2221" y="3718" width="95" height="30" as="geometry" />
        </mxCell>
        <mxCell id="6HQXh_pFPckdDbp-CF7b-82" value="nabíjení" style="text;html=1;align=center;verticalAlign=middle;whiteSpace=wrap;rounded=0;" parent="1" vertex="1">
          <mxGeometry x="2120" y="3673" width="60" height="30" as="geometry" />
        </mxCell>
        <mxCell id="6HQXh_pFPckdDbp-CF7b-84" value="" style="rounded=0;whiteSpace=wrap;html=1;rotation=90;" parent="1" vertex="1">
          <mxGeometry x="1958" y="3719" width="95" height="30" as="geometry" />
        </mxCell>
        <mxCell id="6HQXh_pFPckdDbp-CF7b-85" style="edgeStyle=none;rounded=0;orthogonalLoop=1;jettySize=auto;html=1;exitX=0.5;exitY=0;exitDx=0;exitDy=0;entryX=0;entryY=0.5;entryDx=0;entryDy=0;" parent="1" source="6HQXh_pFPckdDbp-CF7b-86" target="6HQXh_pFPckdDbp-CF7b-88" edge="1">
          <mxGeometry relative="1" as="geometry" />
        </mxCell>
        <mxCell id="6HQXh_pFPckdDbp-CF7b-86" value="" style="rounded=0;whiteSpace=wrap;html=1;rotation=90;" parent="1" vertex="1">
          <mxGeometry x="1560" y="3716" width="94" height="30" as="geometry" />
        </mxCell>
        <mxCell id="6HQXh_pFPckdDbp-CF7b-87" style="edgeStyle=none;rounded=0;orthogonalLoop=1;jettySize=auto;html=1;exitX=1;exitY=0.5;exitDx=0;exitDy=0;entryX=0.5;entryY=1;entryDx=0;entryDy=0;" parent="1" source="6HQXh_pFPckdDbp-CF7b-88" target="6HQXh_pFPckdDbp-CF7b-84" edge="1">
          <mxGeometry relative="1" as="geometry" />
        </mxCell>
        <mxCell id="6HQXh_pFPckdDbp-CF7b-88" value="" style="ellipse;whiteSpace=wrap;html=1;aspect=fixed;" parent="1" vertex="1">
          <mxGeometry x="1780" y="3704" width="60" height="60" as="geometry" />
        </mxCell>
        <mxCell id="6HQXh_pFPckdDbp-CF7b-27" value="" style="rounded=0;whiteSpace=wrap;html=1;rotation=90;" parent="1" vertex="1">
          <mxGeometry x="1562" y="-938" width="94" height="30" as="geometry" />
        </mxCell>
        <mxCell id="Ne4zD6o56oPT8uHqeSny-20" value="" style="ellipse;whiteSpace=wrap;html=1;aspect=fixed;" parent="1" vertex="1">
          <mxGeometry x="1763.5" y="543" width="60" height="60" as="geometry" />
        </mxCell>
        <mxCell id="6HQXh_pFPckdDbp-CF7b-42" value="" style="ellipse;whiteSpace=wrap;html=1;aspect=fixed;" parent="1" vertex="1">
          <mxGeometry x="1763.5" y="121" width="60" height="60" as="geometry" />
        </mxCell>
        <mxCell id="6HQXh_pFPckdDbp-CF7b-103" value="0 - 1,30 h" style="text;html=1;align=center;verticalAlign=middle;whiteSpace=wrap;rounded=0;" parent="1" vertex="1">
          <mxGeometry x="2228.5" y="-2010" width="60" height="30" as="geometry" />
        </mxCell>
        <mxCell id="6HQXh_pFPckdDbp-CF7b-104" value="0 - 0,19 h" style="text;html=1;align=center;verticalAlign=middle;whiteSpace=wrap;rounded=0;" parent="1" vertex="1">
          <mxGeometry x="2228.5" y="-872" width="60" height="30" as="geometry" />
        </mxCell>
        <mxCell id="6HQXh_pFPckdDbp-CF7b-105" value="0 - 3.90 h" style="text;html=1;align=center;verticalAlign=middle;whiteSpace=wrap;rounded=0;" parent="1" vertex="1">
          <mxGeometry x="2228.5" y="200" width="60" height="30" as="geometry" />
        </mxCell>
        <mxCell id="6HQXh_pFPckdDbp-CF7b-106" value="0 - 0,34 h" style="text;html=1;align=center;verticalAlign=middle;whiteSpace=wrap;rounded=0;" parent="1" vertex="1">
          <mxGeometry x="2228.5" y="1360" width="60" height="30" as="geometry" />
        </mxCell>
        <mxCell id="6HQXh_pFPckdDbp-CF7b-107" value="0 - 2.60 h" style="text;html=1;align=center;verticalAlign=middle;whiteSpace=wrap;rounded=0;" parent="1" vertex="1">
          <mxGeometry x="2238.5" y="2573" width="60" height="30" as="geometry" />
        </mxCell>
        <mxCell id="6HQXh_pFPckdDbp-CF7b-108" value="0 - 0,27 h" style="text;html=1;align=center;verticalAlign=middle;whiteSpace=wrap;rounded=0;" parent="1" vertex="1">
          <mxGeometry x="2238.5" y="3780" width="60" height="30" as="geometry" />
        </mxCell>
        <mxCell id="6HQXh_pFPckdDbp-CF7b-109" value="1.9 %" style="text;html=1;align=center;verticalAlign=middle;whiteSpace=wrap;rounded=0;" parent="1" vertex="1">
          <mxGeometry x="1579" y="-2012" width="60" height="30" as="geometry" />
        </mxCell>
        <mxCell id="6HQXh_pFPckdDbp-CF7b-110" value="6.5 %" style="text;html=1;align=center;verticalAlign=middle;whiteSpace=wrap;rounded=0;" parent="1" vertex="1">
          <mxGeometry x="1577" y="-1800" width="60" height="30" as="geometry" />
        </mxCell>
        <mxCell id="6HQXh_pFPckdDbp-CF7b-111" value="63.8 %" style="text;html=1;align=center;verticalAlign=middle;whiteSpace=wrap;rounded=0;" parent="1" vertex="1">
          <mxGeometry x="1579" y="-1582" width="60" height="30" as="geometry" />
        </mxCell>
        <mxCell id="6HQXh_pFPckdDbp-CF7b-112" value="17.4 %" style="text;html=1;align=center;verticalAlign=middle;whiteSpace=wrap;rounded=0;" parent="1" vertex="1">
          <mxGeometry x="1577" y="-1407.5" width="60" height="30" as="geometry" />
        </mxCell>
        <mxCell id="6HQXh_pFPckdDbp-CF7b-113" value="3.6 %" style="text;html=1;align=center;verticalAlign=middle;whiteSpace=wrap;rounded=0;" parent="1" vertex="1">
          <mxGeometry x="1579" y="-1059" width="60" height="30" as="geometry" />
        </mxCell>
        <mxCell id="6HQXh_pFPckdDbp-CF7b-114" value="4.2 %" style="text;html=1;align=center;verticalAlign=middle;whiteSpace=wrap;rounded=0;" parent="1" vertex="1">
          <mxGeometry x="1579" y="-872" width="60" height="30" as="geometry" />
        </mxCell>
        <mxCell id="6HQXh_pFPckdDbp-CF7b-115" value="1.9 %" style="text;html=1;align=center;verticalAlign=middle;whiteSpace=wrap;rounded=0;" parent="1" vertex="1">
          <mxGeometry x="1228" y="200" width="60" height="30" as="geometry" />
        </mxCell>
        <mxCell id="6HQXh_pFPckdDbp-CF7b-116" value="6.5 %" style="text;html=1;align=center;verticalAlign=middle;whiteSpace=wrap;rounded=0;" parent="1" vertex="1">
          <mxGeometry x="1227" y="391" width="60" height="30" as="geometry" />
        </mxCell>
        <mxCell id="6HQXh_pFPckdDbp-CF7b-117" value="63.8 %" style="text;html=1;align=center;verticalAlign=middle;whiteSpace=wrap;rounded=0;" parent="1" vertex="1">
          <mxGeometry x="1230" y="613" width="60" height="30" as="geometry" />
        </mxCell>
        <mxCell id="6HQXh_pFPckdDbp-CF7b-118" value="17.4 %" style="text;html=1;align=center;verticalAlign=middle;whiteSpace=wrap;rounded=0;" parent="1" vertex="1">
          <mxGeometry x="1230" y="833" width="60" height="30" as="geometry" />
        </mxCell>
        <mxCell id="6HQXh_pFPckdDbp-CF7b-119" value="3.6 %" style="text;html=1;align=center;verticalAlign=middle;whiteSpace=wrap;rounded=0;" parent="1" vertex="1">
          <mxGeometry x="1225" y="1170" width="60" height="30" as="geometry" />
        </mxCell>
        <mxCell id="6HQXh_pFPckdDbp-CF7b-120" value="4.2 %" style="text;html=1;align=center;verticalAlign=middle;whiteSpace=wrap;rounded=0;" parent="1" vertex="1">
          <mxGeometry x="1227" y="1360" width="60" height="30" as="geometry" />
        </mxCell>
        <mxCell id="6HQXh_pFPckdDbp-CF7b-121" value="1.9 %" style="text;html=1;align=center;verticalAlign=middle;whiteSpace=wrap;rounded=0;" parent="1" vertex="1">
          <mxGeometry x="1579" y="2563" width="60" height="30" as="geometry" />
        </mxCell>
        <mxCell id="6HQXh_pFPckdDbp-CF7b-122" value="6.5 %" style="text;html=1;align=center;verticalAlign=middle;whiteSpace=wrap;rounded=0;" parent="1" vertex="1">
          <mxGeometry x="1577" y="2764" width="60" height="30" as="geometry" />
        </mxCell>
        <mxCell id="6HQXh_pFPckdDbp-CF7b-123" value="63.8 %" style="text;html=1;align=center;verticalAlign=middle;whiteSpace=wrap;rounded=0;" parent="1" vertex="1">
          <mxGeometry x="1579" y="2987" width="60" height="30" as="geometry" />
        </mxCell>
        <mxCell id="6HQXh_pFPckdDbp-CF7b-125" value="17.4 %" style="text;html=1;align=center;verticalAlign=middle;whiteSpace=wrap;rounded=0;" parent="1" vertex="1">
          <mxGeometry x="1579" y="3223" width="60" height="30" as="geometry" />
        </mxCell>
        <mxCell id="6HQXh_pFPckdDbp-CF7b-126" value="3.6 %" style="text;html=1;align=center;verticalAlign=middle;whiteSpace=wrap;rounded=0;" parent="1" vertex="1">
          <mxGeometry x="1579" y="3580" width="60" height="30" as="geometry" />
        </mxCell>
        <mxCell id="6HQXh_pFPckdDbp-CF7b-127" value="4.2 %" style="text;html=1;align=center;verticalAlign=middle;whiteSpace=wrap;rounded=0;" parent="1" vertex="1">
          <mxGeometry x="1577" y="3780" width="60" height="30" as="geometry" />
        </mxCell>
        <mxCell id="Ne4zD6o56oPT8uHqeSny-50" value="" style="rounded=0;whiteSpace=wrap;html=1;rotation=90;" parent="1" vertex="1">
          <mxGeometry x="1560" y="2921" width="94" height="30" as="geometry" />
        </mxCell>
        <mxCell id="Ne4zD6o56oPT8uHqeSny-56" value="" style="ellipse;whiteSpace=wrap;html=1;aspect=fixed;" parent="1" vertex="1">
          <mxGeometry x="1780" y="3140" width="60" height="60" as="geometry" />
        </mxCell>
        <mxCell id="Ne4zD6o56oPT8uHqeSny-24" value="" style="ellipse;whiteSpace=wrap;html=1;aspect=fixed;" parent="1" vertex="1">
          <mxGeometry x="1763.5" y="1088" width="60" height="60" as="geometry" />
        </mxCell>
        <mxCell id="jSUzYVLEc-bolG3j3XaM-1" value="Exp(&lt;span style=&quot;color: rgb(71, 71, 71); font-family: Arial, sans-serif; font-size: 14px; text-align: left; background-color: rgb(255, 255, 255);&quot;&gt;λ&lt;/span&gt;)" style="text;html=1;align=center;verticalAlign=middle;whiteSpace=wrap;rounded=0;" parent="1" vertex="1">
          <mxGeometry x="447.5" y="836" width="60" height="30" as="geometry" />
        </mxCell>
        <mxCell id="jSUzYVLEc-bolG3j3XaM-2" value="Elektromobil má aktuální kapacitu baterie 0-20 %." style="text;html=1;align=center;verticalAlign=middle;whiteSpace=wrap;rounded=0;" parent="1" vertex="1">
          <mxGeometry x="1130" y="-1600" width="93.5" height="103" as="geometry" />
        </mxCell>
        <mxCell id="jSUzYVLEc-bolG3j3XaM-3" value="Elektromobil má aktuální kapacitu baterie 80-100 %." style="text;html=1;align=center;verticalAlign=middle;whiteSpace=wrap;rounded=0;" parent="1" vertex="1">
          <mxGeometry x="1148" y="3045" width="102" height="103" as="geometry" />
        </mxCell>
        <mxCell id="jSUzYVLEc-bolG3j3XaM-5" value="Čekání na 11 kW nabíječku" style="text;html=1;align=center;verticalAlign=middle;whiteSpace=wrap;rounded=0;" parent="1" vertex="1">
          <mxGeometry x="1780" y="-2133" width="60" height="30" as="geometry" />
        </mxCell>
        <mxCell id="jSUzYVLEc-bolG3j3XaM-6" value="Čekání na 12 kW nabíječku" style="text;html=1;align=center;verticalAlign=middle;whiteSpace=wrap;rounded=0;" parent="1" vertex="1">
          <mxGeometry x="1780" y="-1930" width="60" height="30" as="geometry" />
        </mxCell>
        <mxCell id="jSUzYVLEc-bolG3j3XaM-7" value="Čekání na 22 kW nabíječku" style="text;html=1;align=center;verticalAlign=middle;whiteSpace=wrap;rounded=0;" parent="1" vertex="1">
          <mxGeometry x="1780" y="-1700" width="60" height="30" as="geometry" />
        </mxCell>
        <mxCell id="jSUzYVLEc-bolG3j3XaM-8" value="Čekání na 50 kW nabíječku" style="text;html=1;align=center;verticalAlign=middle;whiteSpace=wrap;rounded=0;" parent="1" vertex="1">
          <mxGeometry x="1782" y="-1530" width="60" height="30" as="geometry" />
        </mxCell>
        <mxCell id="jSUzYVLEc-bolG3j3XaM-9" value="Čekání na 108 kW nabíječku" style="text;html=1;align=center;verticalAlign=middle;whiteSpace=wrap;rounded=0;" parent="1" vertex="1">
          <mxGeometry x="1780" y="-1173.5" width="60" height="30" as="geometry" />
        </mxCell>
        <mxCell id="jSUzYVLEc-bolG3j3XaM-10" value="Čekání na 150 kW nabíječku" style="text;html=1;align=center;verticalAlign=middle;whiteSpace=wrap;rounded=0;" parent="1" vertex="1">
          <mxGeometry x="1780" y="-990" width="60" height="30" as="geometry" />
        </mxCell>
        <mxCell id="jSUzYVLEc-bolG3j3XaM-13" value="Čekání na 11 kW nabíječku" style="text;html=1;align=center;verticalAlign=middle;whiteSpace=wrap;rounded=0;" parent="1" vertex="1">
          <mxGeometry x="1770" y="80" width="60" height="30" as="geometry" />
        </mxCell>
        <mxCell id="jSUzYVLEc-bolG3j3XaM-14" value="Čekání na 12 kW nabíječku" style="text;html=1;align=center;verticalAlign=middle;whiteSpace=wrap;rounded=0;" parent="1" vertex="1">
          <mxGeometry x="1780" y="280" width="60" height="30" as="geometry" />
        </mxCell>
        <mxCell id="jSUzYVLEc-bolG3j3XaM-15" value="Čekání na 22 kW nabíječku" style="text;html=1;align=center;verticalAlign=middle;whiteSpace=wrap;rounded=0;" parent="1" vertex="1">
          <mxGeometry x="1770" y="500" width="60" height="30" as="geometry" />
        </mxCell>
        <mxCell id="jSUzYVLEc-bolG3j3XaM-16" value="Čekání na 50 kW nabíječku" style="text;html=1;align=center;verticalAlign=middle;whiteSpace=wrap;rounded=0;" parent="1" vertex="1">
          <mxGeometry x="1763.5" y="696" width="60" height="30" as="geometry" />
        </mxCell>
        <mxCell id="jSUzYVLEc-bolG3j3XaM-17" value="Čekání na 108 kW nabíječku" style="text;html=1;align=center;verticalAlign=middle;whiteSpace=wrap;rounded=0;" parent="1" vertex="1">
          <mxGeometry x="1763.5" y="1050" width="60" height="30" as="geometry" />
        </mxCell>
        <mxCell id="jSUzYVLEc-bolG3j3XaM-18" value="Čekání na 150 kW nabíječku" style="text;html=1;align=center;verticalAlign=middle;whiteSpace=wrap;rounded=0;" parent="1" vertex="1">
          <mxGeometry x="1740" y="1240" width="60" height="30" as="geometry" />
        </mxCell>
        <mxCell id="jSUzYVLEc-bolG3j3XaM-19" value="Čekání na 11 kW nabíječku" style="text;html=1;align=center;verticalAlign=middle;whiteSpace=wrap;rounded=0;" parent="1" vertex="1">
          <mxGeometry x="1782" y="2445.5" width="60" height="30" as="geometry" />
        </mxCell>
        <mxCell id="jSUzYVLEc-bolG3j3XaM-20" value="Čekání na 12 kW nabíječku" style="text;html=1;align=center;verticalAlign=middle;whiteSpace=wrap;rounded=0;" parent="1" vertex="1">
          <mxGeometry x="1782" y="2648" width="60" height="30" as="geometry" />
        </mxCell>
        <mxCell id="jSUzYVLEc-bolG3j3XaM-21" value="Čekání na 22 kW nabíječku" style="text;html=1;align=center;verticalAlign=middle;whiteSpace=wrap;rounded=0;" parent="1" vertex="1">
          <mxGeometry x="1782" y="2870" width="60" height="30" as="geometry" />
        </mxCell>
        <mxCell id="jSUzYVLEc-bolG3j3XaM-22" value="Čekání na 50 kW nabíječku" style="text;html=1;align=center;verticalAlign=middle;whiteSpace=wrap;rounded=0;" parent="1" vertex="1">
          <mxGeometry x="1800" y="3093" width="60" height="30" as="geometry" />
        </mxCell>
        <mxCell id="jSUzYVLEc-bolG3j3XaM-23" value="Čekání na 108 kW nabíječku" style="text;html=1;align=center;verticalAlign=middle;whiteSpace=wrap;rounded=0;" parent="1" vertex="1">
          <mxGeometry x="1770" y="3460" width="60" height="30" as="geometry" />
        </mxCell>
        <mxCell id="jSUzYVLEc-bolG3j3XaM-24" value="Čekání na 150 kW nabíječku" style="text;html=1;align=center;verticalAlign=middle;whiteSpace=wrap;rounded=0;" parent="1" vertex="1">
          <mxGeometry x="1780" y="3665" width="60" height="30" as="geometry" />
        </mxCell>
        <mxCell id="rcMi0wilFv6k0mJdEsaz-1" value="" style="ellipse;whiteSpace=wrap;html=1;aspect=fixed;fillColor=#bac8d3;strokeColor=#23445d;" vertex="1" parent="1">
          <mxGeometry x="1156" y="2583" width="118" height="118" as="geometry" />
        </mxCell>
        <mxCell id="rcMi0wilFv6k0mJdEsaz-2" value="&lt;span style=&quot;font-size: 35px;&quot;&gt;4&lt;/span&gt;" style="text;html=1;align=center;verticalAlign=middle;whiteSpace=wrap;rounded=0;fillColor=#bac8d3;strokeColor=#23445d;" vertex="1" parent="1">
          <mxGeometry x="1184" y="2628" width="60" height="30" as="geometry" />
        </mxCell>
        <mxCell id="rcMi0wilFv6k0mJdEsaz-3" value="Sklad&amp;nbsp;&lt;div&gt;160 kW&lt;br&gt;&lt;div&gt;nabíječek&lt;/div&gt;&lt;/div&gt;" style="text;html=1;align=center;verticalAlign=middle;whiteSpace=wrap;rounded=0;fillColor=#bac8d3;strokeColor=#23445d;" vertex="1" parent="1">
          <mxGeometry x="1179" y="2701" width="72" height="59" as="geometry" />
        </mxCell>
        <mxCell id="rcMi0wilFv6k0mJdEsaz-4" value="" style="ellipse;whiteSpace=wrap;html=1;aspect=fixed;fillColor=#d0cee2;strokeColor=#56517e;" vertex="1" parent="1">
          <mxGeometry x="1154.5" y="1920" width="118" height="118" as="geometry" />
        </mxCell>
        <mxCell id="rcMi0wilFv6k0mJdEsaz-5" value="&lt;span style=&quot;font-size: 35px;&quot;&gt;4&lt;/span&gt;" style="text;html=1;align=center;verticalAlign=middle;whiteSpace=wrap;rounded=0;fillColor=#d0cee2;strokeColor=#56517e;" vertex="1" parent="1">
          <mxGeometry x="1182.5" y="1965" width="60" height="30" as="geometry" />
        </mxCell>
        <mxCell id="rcMi0wilFv6k0mJdEsaz-6" value="Sklad&lt;br&gt;&lt;div&gt;80 kW&lt;/div&gt;&lt;div&gt;&amp;nbsp;nabíječek&lt;/div&gt;" style="text;html=1;align=center;verticalAlign=middle;whiteSpace=wrap;rounded=0;fillColor=#d0cee2;strokeColor=#56517e;" vertex="1" parent="1">
          <mxGeometry x="1177.5" y="2038" width="72" height="49" as="geometry" />
        </mxCell>
        <mxCell id="rcMi0wilFv6k0mJdEsaz-7" style="edgeStyle=orthogonalEdgeStyle;rounded=0;orthogonalLoop=1;jettySize=auto;html=1;exitX=0.5;exitY=0;exitDx=0;exitDy=0;" edge="1" source="rcMi0wilFv6k0mJdEsaz-15" target="rcMi0wilFv6k0mJdEsaz-9" parent="1">
          <mxGeometry relative="1" as="geometry">
            <mxPoint x="2020.5" y="957" as="sourcePoint" />
          </mxGeometry>
        </mxCell>
        <mxCell id="rcMi0wilFv6k0mJdEsaz-8" style="edgeStyle=orthogonalEdgeStyle;rounded=0;orthogonalLoop=1;jettySize=auto;html=1;exitX=1;exitY=0.5;exitDx=0;exitDy=0;entryX=0.5;entryY=1;entryDx=0;entryDy=0;" edge="1" source="rcMi0wilFv6k0mJdEsaz-9" target="rcMi0wilFv6k0mJdEsaz-10" parent="1">
          <mxGeometry relative="1" as="geometry" />
        </mxCell>
        <mxCell id="rcMi0wilFv6k0mJdEsaz-9" value="" style="ellipse;whiteSpace=wrap;html=1;aspect=fixed;" vertex="1" parent="1">
          <mxGeometry x="2108" y="927" width="60" height="60" as="geometry" />
        </mxCell>
        <mxCell id="rcMi0wilFv6k0mJdEsaz-10" value="" style="rounded=0;whiteSpace=wrap;html=1;rotation=90;" vertex="1" parent="1">
          <mxGeometry x="2209" y="942" width="95" height="30" as="geometry" />
        </mxCell>
        <mxCell id="rcMi0wilFv6k0mJdEsaz-11" value="nabíjení" style="text;html=1;align=center;verticalAlign=middle;whiteSpace=wrap;rounded=0;" vertex="1" parent="1">
          <mxGeometry x="2118" y="987" width="60" height="30" as="geometry" />
        </mxCell>
        <mxCell id="rcMi0wilFv6k0mJdEsaz-13" style="edgeStyle=none;rounded=0;orthogonalLoop=1;jettySize=auto;html=1;exitX=0.5;exitY=0;exitDx=0;exitDy=0;entryX=0;entryY=0.5;entryDx=0;entryDy=0;" edge="1" source="rcMi0wilFv6k0mJdEsaz-14" target="rcMi0wilFv6k0mJdEsaz-18" parent="1">
          <mxGeometry relative="1" as="geometry" />
        </mxCell>
        <mxCell id="rcMi0wilFv6k0mJdEsaz-14" value="" style="rounded=0;whiteSpace=wrap;html=1;rotation=90;" vertex="1" parent="1">
          <mxGeometry x="1208" y="945" width="94" height="30" as="geometry" />
        </mxCell>
        <mxCell id="rcMi0wilFv6k0mJdEsaz-15" value="" style="rounded=0;whiteSpace=wrap;html=1;rotation=90;" vertex="1" parent="1">
          <mxGeometry x="1939.5" y="942" width="95" height="30" as="geometry" />
        </mxCell>
        <mxCell id="rcMi0wilFv6k0mJdEsaz-16" style="edgeStyle=none;rounded=0;orthogonalLoop=1;jettySize=auto;html=1;exitX=1;exitY=0.5;exitDx=0;exitDy=0;entryX=0.5;entryY=1;entryDx=0;entryDy=0;" edge="1" source="rcMi0wilFv6k0mJdEsaz-18" target="rcMi0wilFv6k0mJdEsaz-15" parent="1">
          <mxGeometry relative="1" as="geometry" />
        </mxCell>
        <mxCell id="rcMi0wilFv6k0mJdEsaz-18" value="" style="ellipse;whiteSpace=wrap;html=1;aspect=fixed;" vertex="1" parent="1">
          <mxGeometry x="1761.5" y="927" width="60" height="60" as="geometry" />
        </mxCell>
        <mxCell id="rcMi0wilFv6k0mJdEsaz-19" value="Čekání na 80 kW nabíječku" style="text;html=1;align=center;verticalAlign=middle;whiteSpace=wrap;rounded=0;" vertex="1" parent="1">
          <mxGeometry x="1761.5" y="889" width="60" height="30" as="geometry" />
        </mxCell>
        <mxCell id="rcMi0wilFv6k0mJdEsaz-21" style="rounded=0;orthogonalLoop=1;jettySize=auto;html=1;exitX=0.5;exitY=0;exitDx=0;exitDy=0;entryX=0;entryY=0.5;entryDx=0;entryDy=0;" edge="1" parent="1" source="rcMi0wilFv6k0mJdEsaz-10" target="hVdwgTMXwn0eozp2v96i-219">
          <mxGeometry relative="1" as="geometry" />
        </mxCell>
        <mxCell id="rcMi0wilFv6k0mJdEsaz-35" style="edgeStyle=orthogonalEdgeStyle;rounded=0;orthogonalLoop=1;jettySize=auto;html=1;exitX=0.5;exitY=0;exitDx=0;exitDy=0;entryX=0;entryY=0.5;entryDx=0;entryDy=0;" edge="1" source="rcMi0wilFv6k0mJdEsaz-36" target="rcMi0wilFv6k0mJdEsaz-38" parent="1">
          <mxGeometry relative="1" as="geometry" />
        </mxCell>
        <mxCell id="rcMi0wilFv6k0mJdEsaz-36" value="" style="rounded=0;whiteSpace=wrap;html=1;rotation=90;" vertex="1" parent="1">
          <mxGeometry x="1958" y="-1300" width="95" height="30" as="geometry" />
        </mxCell>
        <mxCell id="rcMi0wilFv6k0mJdEsaz-37" style="edgeStyle=orthogonalEdgeStyle;rounded=0;orthogonalLoop=1;jettySize=auto;html=1;exitX=1;exitY=0.5;exitDx=0;exitDy=0;" edge="1" source="rcMi0wilFv6k0mJdEsaz-38" target="rcMi0wilFv6k0mJdEsaz-39" parent="1">
          <mxGeometry relative="1" as="geometry" />
        </mxCell>
        <mxCell id="rcMi0wilFv6k0mJdEsaz-38" value="" style="ellipse;whiteSpace=wrap;html=1;aspect=fixed;" vertex="1" parent="1">
          <mxGeometry x="2108" y="-1315" width="60" height="60" as="geometry" />
        </mxCell>
        <mxCell id="rcMi0wilFv6k0mJdEsaz-49" style="edgeStyle=orthogonalEdgeStyle;rounded=0;orthogonalLoop=1;jettySize=auto;html=1;exitX=0.5;exitY=0;exitDx=0;exitDy=0;entryX=0;entryY=0;entryDx=0;entryDy=0;" edge="1" parent="1" source="rcMi0wilFv6k0mJdEsaz-39" target="rcMi0wilFv6k0mJdEsaz-9">
          <mxGeometry relative="1" as="geometry">
            <Array as="points">
              <mxPoint x="2540" y="-1285" />
              <mxPoint x="2540" y="-100" />
              <mxPoint x="2080" y="-100" />
              <mxPoint x="2080" y="936" />
            </Array>
          </mxGeometry>
        </mxCell>
        <mxCell id="rcMi0wilFv6k0mJdEsaz-39" value="" style="rounded=0;whiteSpace=wrap;html=1;rotation=90;" vertex="1" parent="1">
          <mxGeometry x="2209" y="-1300" width="95" height="30" as="geometry" />
        </mxCell>
        <mxCell id="rcMi0wilFv6k0mJdEsaz-40" value="nabíjení" style="text;html=1;align=center;verticalAlign=middle;whiteSpace=wrap;rounded=0;" vertex="1" parent="1">
          <mxGeometry x="2108" y="-1346" width="60" height="30" as="geometry" />
        </mxCell>
        <mxCell id="rcMi0wilFv6k0mJdEsaz-42" style="edgeStyle=none;rounded=0;orthogonalLoop=1;jettySize=auto;html=1;exitX=0.5;exitY=0;exitDx=0;exitDy=0;entryX=0;entryY=0.5;entryDx=0;entryDy=0;" edge="1" source="rcMi0wilFv6k0mJdEsaz-43" target="rcMi0wilFv6k0mJdEsaz-45" parent="1">
          <mxGeometry relative="1" as="geometry" />
        </mxCell>
        <mxCell id="rcMi0wilFv6k0mJdEsaz-43" value="" style="rounded=0;whiteSpace=wrap;html=1;rotation=90;" vertex="1" parent="1">
          <mxGeometry x="1560" y="-1303" width="94" height="30" as="geometry" />
        </mxCell>
        <mxCell id="rcMi0wilFv6k0mJdEsaz-44" style="edgeStyle=none;rounded=0;orthogonalLoop=1;jettySize=auto;html=1;exitX=1;exitY=0.5;exitDx=0;exitDy=0;" edge="1" source="rcMi0wilFv6k0mJdEsaz-45" parent="1">
          <mxGeometry relative="1" as="geometry">
            <mxPoint x="1990" y="-1289.6666666666665" as="targetPoint" />
          </mxGeometry>
        </mxCell>
        <mxCell id="rcMi0wilFv6k0mJdEsaz-45" value="" style="ellipse;whiteSpace=wrap;html=1;aspect=fixed;" vertex="1" parent="1">
          <mxGeometry x="1780" y="-1320" width="60" height="60" as="geometry" />
        </mxCell>
        <mxCell id="rcMi0wilFv6k0mJdEsaz-47" value="Čekání na 80 kW nabíječku" style="text;html=1;align=center;verticalAlign=middle;whiteSpace=wrap;rounded=0;" vertex="1" parent="1">
          <mxGeometry x="1782" y="-1360" width="60" height="30" as="geometry" />
        </mxCell>
        <mxCell id="rcMi0wilFv6k0mJdEsaz-50" style="edgeStyle=orthogonalEdgeStyle;rounded=0;orthogonalLoop=1;jettySize=auto;html=1;exitX=0.5;exitY=0;exitDx=0;exitDy=0;entryX=0;entryY=0.5;entryDx=0;entryDy=0;" edge="1" source="rcMi0wilFv6k0mJdEsaz-56" target="rcMi0wilFv6k0mJdEsaz-52" parent="1">
          <mxGeometry relative="1" as="geometry">
            <mxPoint x="2032.5" y="3351" as="sourcePoint" />
          </mxGeometry>
        </mxCell>
        <mxCell id="rcMi0wilFv6k0mJdEsaz-51" style="edgeStyle=orthogonalEdgeStyle;rounded=0;orthogonalLoop=1;jettySize=auto;html=1;exitX=1;exitY=0.5;exitDx=0;exitDy=0;" edge="1" source="rcMi0wilFv6k0mJdEsaz-52" target="rcMi0wilFv6k0mJdEsaz-53" parent="1">
          <mxGeometry relative="1" as="geometry" />
        </mxCell>
        <mxCell id="rcMi0wilFv6k0mJdEsaz-52" value="" style="ellipse;whiteSpace=wrap;html=1;aspect=fixed;" vertex="1" parent="1">
          <mxGeometry x="2120" y="3321" width="60" height="60" as="geometry" />
        </mxCell>
        <mxCell id="rcMi0wilFv6k0mJdEsaz-64" style="rounded=0;orthogonalLoop=1;jettySize=auto;html=1;exitX=0.5;exitY=0;exitDx=0;exitDy=0;entryX=0;entryY=0.5;entryDx=0;entryDy=0;" edge="1" parent="1" source="rcMi0wilFv6k0mJdEsaz-53" target="hVdwgTMXwn0eozp2v96i-219">
          <mxGeometry relative="1" as="geometry" />
        </mxCell>
        <mxCell id="rcMi0wilFv6k0mJdEsaz-53" value="" style="rounded=0;whiteSpace=wrap;html=1;rotation=90;" vertex="1" parent="1">
          <mxGeometry x="2221" y="3336" width="95" height="30" as="geometry" />
        </mxCell>
        <mxCell id="rcMi0wilFv6k0mJdEsaz-54" value="nabíjení" style="text;html=1;align=center;verticalAlign=middle;whiteSpace=wrap;rounded=0;" vertex="1" parent="1">
          <mxGeometry x="2120" y="3290" width="60" height="30" as="geometry" />
        </mxCell>
        <mxCell id="rcMi0wilFv6k0mJdEsaz-56" value="" style="rounded=0;whiteSpace=wrap;html=1;rotation=90;" vertex="1" parent="1">
          <mxGeometry x="1958" y="3337" width="95" height="30" as="geometry" />
        </mxCell>
        <mxCell id="rcMi0wilFv6k0mJdEsaz-57" style="edgeStyle=none;rounded=0;orthogonalLoop=1;jettySize=auto;html=1;exitX=0.5;exitY=0;exitDx=0;exitDy=0;entryX=0;entryY=0.5;entryDx=0;entryDy=0;" edge="1" source="rcMi0wilFv6k0mJdEsaz-58" target="rcMi0wilFv6k0mJdEsaz-61" parent="1">
          <mxGeometry relative="1" as="geometry" />
        </mxCell>
        <mxCell id="rcMi0wilFv6k0mJdEsaz-58" value="" style="rounded=0;whiteSpace=wrap;html=1;rotation=90;" vertex="1" parent="1">
          <mxGeometry x="1560" y="3334" width="94" height="30" as="geometry" />
        </mxCell>
        <mxCell id="rcMi0wilFv6k0mJdEsaz-59" style="edgeStyle=none;rounded=0;orthogonalLoop=1;jettySize=auto;html=1;exitX=1;exitY=0.5;exitDx=0;exitDy=0;" edge="1" source="rcMi0wilFv6k0mJdEsaz-61" parent="1">
          <mxGeometry relative="1" as="geometry">
            <mxPoint x="1990" y="3347.3333333333335" as="targetPoint" />
          </mxGeometry>
        </mxCell>
        <mxCell id="rcMi0wilFv6k0mJdEsaz-61" value="" style="ellipse;whiteSpace=wrap;html=1;aspect=fixed;" vertex="1" parent="1">
          <mxGeometry x="1780" y="3317" width="60" height="60" as="geometry" />
        </mxCell>
        <mxCell id="rcMi0wilFv6k0mJdEsaz-62" value="Čekání na 80 kW nabíječku" style="text;html=1;align=center;verticalAlign=middle;whiteSpace=wrap;rounded=0;" vertex="1" parent="1">
          <mxGeometry x="1770" y="3270" width="60" height="30" as="geometry" />
        </mxCell>
        <mxCell id="rcMi0wilFv6k0mJdEsaz-71" style="edgeStyle=orthogonalEdgeStyle;rounded=0;orthogonalLoop=1;jettySize=auto;html=1;exitX=0.5;exitY=0;exitDx=0;exitDy=0;" edge="1" source="rcMi0wilFv6k0mJdEsaz-72" target="rcMi0wilFv6k0mJdEsaz-74" parent="1">
          <mxGeometry relative="1" as="geometry" />
        </mxCell>
        <mxCell id="rcMi0wilFv6k0mJdEsaz-72" value="" style="rounded=0;whiteSpace=wrap;html=1;rotation=90;" vertex="1" parent="1">
          <mxGeometry x="1960" y="-768" width="95" height="30" as="geometry" />
        </mxCell>
        <mxCell id="rcMi0wilFv6k0mJdEsaz-73" style="edgeStyle=orthogonalEdgeStyle;rounded=0;orthogonalLoop=1;jettySize=auto;html=1;exitX=1;exitY=0.5;exitDx=0;exitDy=0;entryX=0.5;entryY=1;entryDx=0;entryDy=0;" edge="1" source="rcMi0wilFv6k0mJdEsaz-74" target="rcMi0wilFv6k0mJdEsaz-75" parent="1">
          <mxGeometry relative="1" as="geometry" />
        </mxCell>
        <mxCell id="rcMi0wilFv6k0mJdEsaz-74" value="" style="ellipse;whiteSpace=wrap;html=1;aspect=fixed;" vertex="1" parent="1">
          <mxGeometry x="2110" y="-783" width="60" height="60" as="geometry" />
        </mxCell>
        <mxCell id="rcMi0wilFv6k0mJdEsaz-99" style="edgeStyle=orthogonalEdgeStyle;rounded=0;orthogonalLoop=1;jettySize=auto;html=1;exitX=0.5;exitY=0;exitDx=0;exitDy=0;entryX=0;entryY=0;entryDx=0;entryDy=0;" edge="1" parent="1" source="rcMi0wilFv6k0mJdEsaz-75" target="rcMi0wilFv6k0mJdEsaz-86">
          <mxGeometry relative="1" as="geometry">
            <Array as="points">
              <mxPoint x="2274" y="-760" />
              <mxPoint x="2400" y="-760" />
              <mxPoint x="2400" y="-210" />
              <mxPoint x="2020" y="-210" />
              <mxPoint x="2020" y="1457" />
            </Array>
          </mxGeometry>
        </mxCell>
        <mxCell id="rcMi0wilFv6k0mJdEsaz-75" value="" style="rounded=0;whiteSpace=wrap;html=1;rotation=90;" vertex="1" parent="1">
          <mxGeometry x="2211" y="-768" width="95" height="30" as="geometry" />
        </mxCell>
        <mxCell id="rcMi0wilFv6k0mJdEsaz-76" value="nabíjení" style="text;html=1;align=center;verticalAlign=middle;whiteSpace=wrap;rounded=0;" vertex="1" parent="1">
          <mxGeometry x="2110" y="-813" width="60" height="30" as="geometry" />
        </mxCell>
        <mxCell id="rcMi0wilFv6k0mJdEsaz-77" style="edgeStyle=none;rounded=0;orthogonalLoop=1;jettySize=auto;html=1;exitX=0.5;exitY=0;exitDx=0;exitDy=0;entryX=0;entryY=0.5;entryDx=0;entryDy=0;" edge="1" source="rcMi0wilFv6k0mJdEsaz-80" target="rcMi0wilFv6k0mJdEsaz-79" parent="1">
          <mxGeometry relative="1" as="geometry" />
        </mxCell>
        <mxCell id="rcMi0wilFv6k0mJdEsaz-78" style="edgeStyle=none;rounded=0;orthogonalLoop=1;jettySize=auto;html=1;exitX=1;exitY=0.5;exitDx=0;exitDy=0;entryX=0.5;entryY=1;entryDx=0;entryDy=0;" edge="1" source="rcMi0wilFv6k0mJdEsaz-79" target="rcMi0wilFv6k0mJdEsaz-72" parent="1">
          <mxGeometry relative="1" as="geometry" />
        </mxCell>
        <mxCell id="rcMi0wilFv6k0mJdEsaz-79" value="" style="ellipse;whiteSpace=wrap;html=1;aspect=fixed;" vertex="1" parent="1">
          <mxGeometry x="1782" y="-783" width="60" height="60" as="geometry" />
        </mxCell>
        <mxCell id="rcMi0wilFv6k0mJdEsaz-80" value="" style="rounded=0;whiteSpace=wrap;html=1;rotation=90;" vertex="1" parent="1">
          <mxGeometry x="1562" y="-771" width="94" height="30" as="geometry" />
        </mxCell>
        <mxCell id="rcMi0wilFv6k0mJdEsaz-82" value="Čekání na 160 kW nabíječku" style="text;html=1;align=center;verticalAlign=middle;whiteSpace=wrap;rounded=0;" vertex="1" parent="1">
          <mxGeometry x="1780" y="-826" width="60" height="30" as="geometry" />
        </mxCell>
        <mxCell id="rcMi0wilFv6k0mJdEsaz-84" style="edgeStyle=orthogonalEdgeStyle;rounded=0;orthogonalLoop=1;jettySize=auto;html=1;exitX=0.5;exitY=0;exitDx=0;exitDy=0;" edge="1" source="rcMi0wilFv6k0mJdEsaz-91" target="rcMi0wilFv6k0mJdEsaz-86" parent="1">
          <mxGeometry relative="1" as="geometry">
            <mxPoint x="2020.5" y="1478" as="sourcePoint" />
          </mxGeometry>
        </mxCell>
        <mxCell id="rcMi0wilFv6k0mJdEsaz-85" style="edgeStyle=orthogonalEdgeStyle;rounded=0;orthogonalLoop=1;jettySize=auto;html=1;exitX=1;exitY=0.5;exitDx=0;exitDy=0;entryX=0.5;entryY=1;entryDx=0;entryDy=0;" edge="1" source="rcMi0wilFv6k0mJdEsaz-86" target="rcMi0wilFv6k0mJdEsaz-87" parent="1">
          <mxGeometry relative="1" as="geometry" />
        </mxCell>
        <mxCell id="rcMi0wilFv6k0mJdEsaz-86" value="" style="ellipse;whiteSpace=wrap;html=1;aspect=fixed;" vertex="1" parent="1">
          <mxGeometry x="2108" y="1448" width="60" height="60" as="geometry" />
        </mxCell>
        <mxCell id="rcMi0wilFv6k0mJdEsaz-98" style="edgeStyle=none;rounded=0;orthogonalLoop=1;jettySize=auto;html=1;exitX=0.5;exitY=0;exitDx=0;exitDy=0;" edge="1" parent="1" source="rcMi0wilFv6k0mJdEsaz-87">
          <mxGeometry relative="1" as="geometry">
            <mxPoint x="2640" y="1740" as="targetPoint" />
          </mxGeometry>
        </mxCell>
        <mxCell id="rcMi0wilFv6k0mJdEsaz-87" value="" style="rounded=0;whiteSpace=wrap;html=1;rotation=90;" vertex="1" parent="1">
          <mxGeometry x="2209" y="1463" width="95" height="30" as="geometry" />
        </mxCell>
        <mxCell id="rcMi0wilFv6k0mJdEsaz-88" value="nabíjení" style="text;html=1;align=center;verticalAlign=middle;whiteSpace=wrap;rounded=0;" vertex="1" parent="1">
          <mxGeometry x="2128" y="1508" width="60" height="30" as="geometry" />
        </mxCell>
        <mxCell id="rcMi0wilFv6k0mJdEsaz-89" style="edgeStyle=none;rounded=0;orthogonalLoop=1;jettySize=auto;html=1;exitX=0.5;exitY=0;exitDx=0;exitDy=0;entryX=0;entryY=0.5;entryDx=0;entryDy=0;" edge="1" source="rcMi0wilFv6k0mJdEsaz-90" target="rcMi0wilFv6k0mJdEsaz-93" parent="1">
          <mxGeometry relative="1" as="geometry" />
        </mxCell>
        <mxCell id="rcMi0wilFv6k0mJdEsaz-90" value="" style="rounded=0;whiteSpace=wrap;html=1;rotation=90;" vertex="1" parent="1">
          <mxGeometry x="1208" y="1466" width="94" height="30" as="geometry" />
        </mxCell>
        <mxCell id="rcMi0wilFv6k0mJdEsaz-91" value="" style="rounded=0;whiteSpace=wrap;html=1;rotation=90;" vertex="1" parent="1">
          <mxGeometry x="1939.5" y="1463" width="95" height="30" as="geometry" />
        </mxCell>
        <mxCell id="rcMi0wilFv6k0mJdEsaz-92" style="edgeStyle=none;rounded=0;orthogonalLoop=1;jettySize=auto;html=1;exitX=1;exitY=0.5;exitDx=0;exitDy=0;entryX=0.5;entryY=1;entryDx=0;entryDy=0;" edge="1" source="rcMi0wilFv6k0mJdEsaz-93" target="rcMi0wilFv6k0mJdEsaz-91" parent="1">
          <mxGeometry relative="1" as="geometry" />
        </mxCell>
        <mxCell id="rcMi0wilFv6k0mJdEsaz-93" value="" style="ellipse;whiteSpace=wrap;html=1;aspect=fixed;" vertex="1" parent="1">
          <mxGeometry x="1761.5" y="1448" width="60" height="60" as="geometry" />
        </mxCell>
        <mxCell id="rcMi0wilFv6k0mJdEsaz-96" value="Čekání na 160 kW nabíječku" style="text;html=1;align=center;verticalAlign=middle;whiteSpace=wrap;rounded=0;" vertex="1" parent="1">
          <mxGeometry x="1738" y="1410" width="60" height="30" as="geometry" />
        </mxCell>
        <mxCell id="rcMi0wilFv6k0mJdEsaz-100" style="edgeStyle=orthogonalEdgeStyle;rounded=0;orthogonalLoop=1;jettySize=auto;html=1;exitX=0.5;exitY=0;exitDx=0;exitDy=0;" edge="1" source="rcMi0wilFv6k0mJdEsaz-105" target="rcMi0wilFv6k0mJdEsaz-102" parent="1">
          <mxGeometry relative="1" as="geometry">
            <mxPoint x="2034.5" y="3908" as="sourcePoint" />
          </mxGeometry>
        </mxCell>
        <mxCell id="rcMi0wilFv6k0mJdEsaz-101" style="edgeStyle=orthogonalEdgeStyle;rounded=0;orthogonalLoop=1;jettySize=auto;html=1;exitX=1;exitY=0.5;exitDx=0;exitDy=0;entryX=0.5;entryY=1;entryDx=0;entryDy=0;" edge="1" source="rcMi0wilFv6k0mJdEsaz-102" target="rcMi0wilFv6k0mJdEsaz-103" parent="1">
          <mxGeometry relative="1" as="geometry" />
        </mxCell>
        <mxCell id="rcMi0wilFv6k0mJdEsaz-102" value="" style="ellipse;whiteSpace=wrap;html=1;aspect=fixed;" vertex="1" parent="1">
          <mxGeometry x="2122" y="3878" width="60" height="60" as="geometry" />
        </mxCell>
        <mxCell id="rcMi0wilFv6k0mJdEsaz-116" style="edgeStyle=none;rounded=0;orthogonalLoop=1;jettySize=auto;html=1;exitX=0.5;exitY=0;exitDx=0;exitDy=0;entryX=0;entryY=0.5;entryDx=0;entryDy=0;" edge="1" parent="1" source="rcMi0wilFv6k0mJdEsaz-103" target="hVdwgTMXwn0eozp2v96i-219">
          <mxGeometry relative="1" as="geometry" />
        </mxCell>
        <mxCell id="rcMi0wilFv6k0mJdEsaz-103" value="" style="rounded=0;whiteSpace=wrap;html=1;rotation=90;" vertex="1" parent="1">
          <mxGeometry x="2223" y="3893" width="95" height="30" as="geometry" />
        </mxCell>
        <mxCell id="rcMi0wilFv6k0mJdEsaz-104" value="nabíjení" style="text;html=1;align=center;verticalAlign=middle;whiteSpace=wrap;rounded=0;" vertex="1" parent="1">
          <mxGeometry x="2122" y="3848" width="60" height="30" as="geometry" />
        </mxCell>
        <mxCell id="rcMi0wilFv6k0mJdEsaz-105" value="" style="rounded=0;whiteSpace=wrap;html=1;rotation=90;" vertex="1" parent="1">
          <mxGeometry x="1960" y="3894" width="95" height="30" as="geometry" />
        </mxCell>
        <mxCell id="rcMi0wilFv6k0mJdEsaz-106" style="edgeStyle=none;rounded=0;orthogonalLoop=1;jettySize=auto;html=1;exitX=0.5;exitY=0;exitDx=0;exitDy=0;entryX=0;entryY=0.5;entryDx=0;entryDy=0;" edge="1" source="rcMi0wilFv6k0mJdEsaz-107" target="rcMi0wilFv6k0mJdEsaz-109" parent="1">
          <mxGeometry relative="1" as="geometry" />
        </mxCell>
        <mxCell id="rcMi0wilFv6k0mJdEsaz-107" value="" style="rounded=0;whiteSpace=wrap;html=1;rotation=90;" vertex="1" parent="1">
          <mxGeometry x="1562" y="3891" width="94" height="30" as="geometry" />
        </mxCell>
        <mxCell id="rcMi0wilFv6k0mJdEsaz-108" style="edgeStyle=none;rounded=0;orthogonalLoop=1;jettySize=auto;html=1;exitX=1;exitY=0.5;exitDx=0;exitDy=0;entryX=0.5;entryY=1;entryDx=0;entryDy=0;" edge="1" source="rcMi0wilFv6k0mJdEsaz-109" target="rcMi0wilFv6k0mJdEsaz-105" parent="1">
          <mxGeometry relative="1" as="geometry" />
        </mxCell>
        <mxCell id="rcMi0wilFv6k0mJdEsaz-109" value="" style="ellipse;whiteSpace=wrap;html=1;aspect=fixed;" vertex="1" parent="1">
          <mxGeometry x="1782" y="3879" width="60" height="60" as="geometry" />
        </mxCell>
        <mxCell id="rcMi0wilFv6k0mJdEsaz-112" value="Čekání na 160 kW nabíječku" style="text;html=1;align=center;verticalAlign=middle;whiteSpace=wrap;rounded=0;" vertex="1" parent="1">
          <mxGeometry x="1782" y="3840" width="60" height="30" as="geometry" />
        </mxCell>
        <mxCell id="rcMi0wilFv6k0mJdEsaz-123" value="1.3 %" style="text;html=1;align=center;verticalAlign=middle;whiteSpace=wrap;rounded=0;" vertex="1" parent="1">
          <mxGeometry x="1577" y="-1240" width="60" height="30" as="geometry" />
        </mxCell>
        <mxCell id="rcMi0wilFv6k0mJdEsaz-124" value="1.3 %" style="text;html=1;align=center;verticalAlign=middle;whiteSpace=wrap;rounded=0;" vertex="1" parent="1">
          <mxGeometry x="1594" y="-710" width="60" height="30" as="geometry" />
        </mxCell>
        <mxCell id="rcMi0wilFv6k0mJdEsaz-125" value="1.3 %" style="text;html=1;align=center;verticalAlign=middle;whiteSpace=wrap;rounded=0;" vertex="1" parent="1">
          <mxGeometry x="1230" y="1010" width="60" height="30" as="geometry" />
        </mxCell>
        <mxCell id="rcMi0wilFv6k0mJdEsaz-126" value="1.3 %" style="text;html=1;align=center;verticalAlign=middle;whiteSpace=wrap;rounded=0;" vertex="1" parent="1">
          <mxGeometry x="1228" y="1530" width="60" height="30" as="geometry" />
        </mxCell>
        <mxCell id="rcMi0wilFv6k0mJdEsaz-127" value="1.3 %" style="text;html=1;align=center;verticalAlign=middle;whiteSpace=wrap;rounded=0;" vertex="1" parent="1">
          <mxGeometry x="1577" y="3397" width="60" height="30" as="geometry" />
        </mxCell>
        <mxCell id="rcMi0wilFv6k0mJdEsaz-128" value="1.3 %" style="text;html=1;align=center;verticalAlign=middle;whiteSpace=wrap;rounded=0;" vertex="1" parent="1">
          <mxGeometry x="1579" y="3952" width="60" height="30" as="geometry" />
        </mxCell>
        <mxCell id="rcMi0wilFv6k0mJdEsaz-129" value="0 - 0,36 h" style="text;html=1;align=center;verticalAlign=middle;whiteSpace=wrap;rounded=0;" vertex="1" parent="1">
          <mxGeometry x="2226.5" y="-1238" width="60" height="30" as="geometry" />
        </mxCell>
        <mxCell id="rcMi0wilFv6k0mJdEsaz-130" value="0 - 0,18 h" style="text;html=1;align=center;verticalAlign=middle;whiteSpace=wrap;rounded=0;" vertex="1" parent="1">
          <mxGeometry x="2228.5" y="-705" width="60" height="30" as="geometry" />
        </mxCell>
        <mxCell id="rcMi0wilFv6k0mJdEsaz-131" value="0 - 0,63 h" style="text;html=1;align=center;verticalAlign=middle;whiteSpace=wrap;rounded=0;" vertex="1" parent="1">
          <mxGeometry x="2226.5" y="1004" width="60" height="30" as="geometry" />
        </mxCell>
        <mxCell id="rcMi0wilFv6k0mJdEsaz-132" value="0 - 0,31 h" style="text;html=1;align=center;verticalAlign=middle;whiteSpace=wrap;rounded=0;" vertex="1" parent="1">
          <mxGeometry x="2226.5" y="1525" width="60" height="30" as="geometry" />
        </mxCell>
        <mxCell id="rcMi0wilFv6k0mJdEsaz-133" value="0 - 0,51 h" style="text;html=1;align=center;verticalAlign=middle;whiteSpace=wrap;rounded=0;" vertex="1" parent="1">
          <mxGeometry x="2239.5" y="3398" width="60" height="30" as="geometry" />
        </mxCell>
        <mxCell id="rcMi0wilFv6k0mJdEsaz-134" value="0 - 0,26 h" style="text;html=1;align=center;verticalAlign=middle;whiteSpace=wrap;rounded=0;" vertex="1" parent="1">
          <mxGeometry x="2240.5" y="3955" width="60" height="30" as="geometry" />
        </mxCell>
      </root>
    </mxGraphModel>
  </diagram>
  <diagram id="CStPEbH_AKKDRR1yNwle" name="Page-2">
    <mxGraphModel dx="4200" dy="2228" grid="1" gridSize="10" guides="1" tooltips="1" connect="1" arrows="1" fold="1" page="1" pageScale="1" pageWidth="1920" pageHeight="1200" math="0" shadow="0">
      <root>
        <mxCell id="0" />
        <mxCell id="1" parent="0" />
        <mxCell id="S4T3LMDbmQOm3iLh_3VG-1" style="edgeStyle=orthogonalEdgeStyle;rounded=0;orthogonalLoop=1;jettySize=auto;html=1;exitX=1;exitY=0.5;exitDx=0;exitDy=0;entryX=0.5;entryY=1;entryDx=0;entryDy=0;" edge="1" parent="1" source="S4T3LMDbmQOm3iLh_3VG-2" target="S4T3LMDbmQOm3iLh_3VG-5">
          <mxGeometry relative="1" as="geometry" />
        </mxCell>
        <mxCell id="S4T3LMDbmQOm3iLh_3VG-2" value="" style="ellipse;whiteSpace=wrap;html=1;aspect=fixed;rotation=90;" vertex="1" parent="1">
          <mxGeometry x="1002.5" y="20" width="60" height="60" as="geometry" />
        </mxCell>
        <mxCell id="S4T3LMDbmQOm3iLh_3VG-21" style="edgeStyle=orthogonalEdgeStyle;rounded=0;orthogonalLoop=1;jettySize=auto;html=1;exitX=0;exitY=0.5;exitDx=0;exitDy=0;entryX=0.5;entryY=0;entryDx=0;entryDy=0;" edge="1" parent="1" source="S4T3LMDbmQOm3iLh_3VG-5" target="S4T3LMDbmQOm3iLh_3VG-2">
          <mxGeometry relative="1" as="geometry" />
        </mxCell>
        <mxCell id="5gtBQZb-ARbdYOJoLiY5-4" style="edgeStyle=none;rounded=0;orthogonalLoop=1;jettySize=auto;html=1;exitX=0.5;exitY=0;exitDx=0;exitDy=0;entryX=1;entryY=0;entryDx=0;entryDy=0;" edge="1" parent="1" source="S4T3LMDbmQOm3iLh_3VG-5" target="5gtBQZb-ARbdYOJoLiY5-1">
          <mxGeometry relative="1" as="geometry" />
        </mxCell>
        <mxCell id="S4T3LMDbmQOm3iLh_3VG-5" value="" style="rounded=0;whiteSpace=wrap;html=1;rotation=-180;" vertex="1" parent="1">
          <mxGeometry x="985" y="155" width="95" height="30" as="geometry" />
        </mxCell>
        <mxCell id="S4T3LMDbmQOm3iLh_3VG-9" value="Auta z Brna" style="text;html=1;align=center;verticalAlign=middle;whiteSpace=wrap;rounded=0;" vertex="1" parent="1">
          <mxGeometry x="942.5" y="35" width="60" height="30" as="geometry" />
        </mxCell>
        <mxCell id="S4T3LMDbmQOm3iLh_3VG-22" style="edgeStyle=orthogonalEdgeStyle;rounded=0;orthogonalLoop=1;jettySize=auto;html=1;exitX=1;exitY=0.5;exitDx=0;exitDy=0;entryX=0.5;entryY=1;entryDx=0;entryDy=0;" edge="1" source="S4T3LMDbmQOm3iLh_3VG-23" target="S4T3LMDbmQOm3iLh_3VG-25" parent="1">
          <mxGeometry relative="1" as="geometry" />
        </mxCell>
        <mxCell id="S4T3LMDbmQOm3iLh_3VG-23" value="" style="ellipse;whiteSpace=wrap;html=1;aspect=fixed;rotation=90;" vertex="1" parent="1">
          <mxGeometry x="800" y="20" width="60" height="60" as="geometry" />
        </mxCell>
        <mxCell id="S4T3LMDbmQOm3iLh_3VG-24" style="edgeStyle=orthogonalEdgeStyle;rounded=0;orthogonalLoop=1;jettySize=auto;html=1;exitX=0;exitY=0.5;exitDx=0;exitDy=0;entryX=0.5;entryY=0;entryDx=0;entryDy=0;" edge="1" source="S4T3LMDbmQOm3iLh_3VG-25" target="S4T3LMDbmQOm3iLh_3VG-23" parent="1">
          <mxGeometry relative="1" as="geometry" />
        </mxCell>
        <mxCell id="5gtBQZb-ARbdYOJoLiY5-3" style="edgeStyle=none;rounded=0;orthogonalLoop=1;jettySize=auto;html=1;exitX=0.5;exitY=0;exitDx=0;exitDy=0;entryX=0;entryY=0;entryDx=0;entryDy=0;" edge="1" parent="1" source="S4T3LMDbmQOm3iLh_3VG-25" target="5gtBQZb-ARbdYOJoLiY5-1">
          <mxGeometry relative="1" as="geometry" />
        </mxCell>
        <mxCell id="S4T3LMDbmQOm3iLh_3VG-25" value="" style="rounded=0;whiteSpace=wrap;html=1;rotation=-180;" vertex="1" parent="1">
          <mxGeometry x="782.5" y="155" width="95" height="30" as="geometry" />
        </mxCell>
        <mxCell id="S4T3LMDbmQOm3iLh_3VG-26" value="Tranzit" style="text;html=1;align=center;verticalAlign=middle;whiteSpace=wrap;rounded=0;" vertex="1" parent="1">
          <mxGeometry x="740" y="35" width="60" height="30" as="geometry" />
        </mxCell>
        <mxCell id="bKzwvBtDKo798b0s_LEP-4" style="edgeStyle=none;rounded=0;orthogonalLoop=1;jettySize=auto;html=1;exitX=0;exitY=1;exitDx=0;exitDy=0;entryX=0.5;entryY=0;entryDx=0;entryDy=0;" edge="1" parent="1" source="5gtBQZb-ARbdYOJoLiY5-1" target="LTTaKwgMZc1hLyk9OApx-1">
          <mxGeometry relative="1" as="geometry" />
        </mxCell>
        <mxCell id="bKzwvBtDKo798b0s_LEP-5" style="edgeStyle=none;rounded=0;orthogonalLoop=1;jettySize=auto;html=1;exitX=0.5;exitY=1;exitDx=0;exitDy=0;entryX=0.5;entryY=0;entryDx=0;entryDy=0;" edge="1" parent="1" source="5gtBQZb-ARbdYOJoLiY5-1" target="03Ks3WchF_T68GLdegcM-1">
          <mxGeometry relative="1" as="geometry" />
        </mxCell>
        <mxCell id="bKzwvBtDKo798b0s_LEP-6" style="edgeStyle=none;rounded=0;orthogonalLoop=1;jettySize=auto;html=1;exitX=1;exitY=1;exitDx=0;exitDy=0;entryX=0.5;entryY=0;entryDx=0;entryDy=0;" edge="1" parent="1" source="5gtBQZb-ARbdYOJoLiY5-1" target="bKzwvBtDKo798b0s_LEP-1">
          <mxGeometry relative="1" as="geometry" />
        </mxCell>
        <mxCell id="5gtBQZb-ARbdYOJoLiY5-1" value="" style="ellipse;whiteSpace=wrap;html=1;aspect=fixed;" vertex="1" parent="1">
          <mxGeometry x="910" y="270" width="60" height="60" as="geometry" />
        </mxCell>
        <mxCell id="5gtBQZb-ARbdYOJoLiY5-2" value="Fronta aut v Brne čakajúca na nabíjačku" style="text;html=1;align=center;verticalAlign=middle;whiteSpace=wrap;rounded=0;" vertex="1" parent="1">
          <mxGeometry x="980" y="240" width="60" height="90" as="geometry" />
        </mxCell>
        <mxCell id="LTTaKwgMZc1hLyk9OApx-1" value="" style="rounded=0;whiteSpace=wrap;html=1;rotation=-90;direction=south;" vertex="1" parent="1">
          <mxGeometry x="602.5" y="417.5" width="30" height="95" as="geometry" />
        </mxCell>
        <mxCell id="LTTaKwgMZc1hLyk9OApx-2" value="10%" style="text;html=1;align=center;verticalAlign=middle;whiteSpace=wrap;rounded=0;" vertex="1" parent="1">
          <mxGeometry x="570" y="482.5" width="40" height="30" as="geometry" />
        </mxCell>
        <mxCell id="LTTaKwgMZc1hLyk9OApx-3" value="Auto má aktuálnu kapacitu 0-20%" style="text;html=1;align=center;verticalAlign=middle;whiteSpace=wrap;rounded=0;" vertex="1" parent="1">
          <mxGeometry x="602.5" y="380" width="60" height="60" as="geometry" />
        </mxCell>
        <mxCell id="03Ks3WchF_T68GLdegcM-1" value="" style="rounded=0;whiteSpace=wrap;html=1;rotation=0;" vertex="1" parent="1">
          <mxGeometry x="890" y="445" width="95" height="30" as="geometry" />
        </mxCell>
        <mxCell id="03Ks3WchF_T68GLdegcM-2" value="80%" style="text;html=1;align=center;verticalAlign=middle;whiteSpace=wrap;rounded=0;" vertex="1" parent="1">
          <mxGeometry x="890" y="473" width="40" height="30" as="geometry" />
        </mxCell>
        <mxCell id="03Ks3WchF_T68GLdegcM-3" value="Auto má aktuálnu kapacitu 20-80%" style="text;html=1;align=center;verticalAlign=middle;whiteSpace=wrap;rounded=0;" vertex="1" parent="1">
          <mxGeometry x="935" y="370" width="60" height="60" as="geometry" />
        </mxCell>
        <mxCell id="bKzwvBtDKo798b0s_LEP-1" value="" style="rounded=0;whiteSpace=wrap;html=1;rotation=0;" vertex="1" parent="1">
          <mxGeometry x="1210" y="443" width="95" height="30" as="geometry" />
        </mxCell>
        <mxCell id="bKzwvBtDKo798b0s_LEP-2" value="10%" style="text;html=1;align=center;verticalAlign=middle;whiteSpace=wrap;rounded=0;" vertex="1" parent="1">
          <mxGeometry x="1210" y="473" width="40" height="30" as="geometry" />
        </mxCell>
        <mxCell id="bKzwvBtDKo798b0s_LEP-3" value="Auto má aktuálnu kapacitu 80-100%" style="text;html=1;align=center;verticalAlign=middle;whiteSpace=wrap;rounded=0;" vertex="1" parent="1">
          <mxGeometry x="1220" y="385" width="60" height="30" as="geometry" />
        </mxCell>
      </root>
    </mxGraphModel>
  </diagram>
</mxfile>
